<svg width="225" height="225" viewBox="0 0 225 225" fill="none" xmlns="http://www.w3.org/2000/svg">
<rect x="5.65685" y="112.206" width="150.683" height="150.683" transform="rotate(-45 5.65685 112.206)" stroke="#F5F5F5" stroke-width="8"/>
<rect x="37.1213" y="113" width="105.712" height="105.712" transform="rotate(-45 37.1213 113)" stroke="#F5F5F5" stroke-width="3"/>
<path d="M137.2 85.8667C137.2 84.8357 136.364 84 135.333 84H107.333C106.302 84 105.467 84.8357 105.467 85.8667V92.4C105.467 93.4309 106.302 94.2667 107.333 94.2667H110.133C110.133 99.232 110.133 99.0453 110.227 99.3347C110.32 99.624 111.701 101.883 116.527 110.133C116.858 110.707 117.469 111.063 118.132 111.067H120.4V115.733C120.4 116.249 120.818 116.667 121.333 116.667C121.849 116.667 122.267 116.249 122.267 115.733V111.067H124.535C125.197 111.063 125.808 110.707 126.14 110.133C130.965 101.873 132.356 99.4933 132.44 99.3253C132.524 99.1573 132.533 99.3253 132.533 94.2573H135.333C136.364 94.2573 137.2 93.4216 137.2 92.3907V85.8667ZM130.667 98H120.4C119.884 98 119.467 98.4179 119.467 98.9333C119.467 99.4488 119.884 99.8667 120.4 99.8667H129.976L124.535 109.2H118.132L112.691 99.8667H115.733C116.249 99.8667 116.667 99.4488 116.667 98.9333C116.667 98.4179 116.249 98 115.733 98H112V94.2667H130.667V98ZM135.333 92.4H107.333V85.8667H109.2V87.7333C109.2 88.2488 109.618 88.6667 110.133 88.6667C110.649 88.6667 111.067 88.2488 111.067 87.7333V85.8667H112.933V87.7333C112.933 88.2488 113.351 88.6667 113.867 88.6667C114.382 88.6667 114.8 88.2488 114.8 87.7333V85.8667H116.667V87.7333C116.667 88.2488 117.084 88.6667 117.6 88.6667C118.115 88.6667 118.533 88.2488 118.533 87.7333V85.8667H120.4V87.7333C120.4 88.2488 120.818 88.6667 121.333 88.6667C121.849 88.6667 122.267 88.2488 122.267 87.7333V85.8667H124.133V87.7333C124.133 88.2488 124.551 88.6667 125.067 88.6667C125.582 88.6667 126 88.2488 126 87.7333V85.8667H127.867V87.7333C127.867 88.2488 128.284 88.6667 128.8 88.6667C129.315 88.6667 129.733 88.2488 129.733 87.7333V85.8667H131.6V87.7333C131.6 88.2488 132.018 88.6667 132.533 88.6667C133.049 88.6667 133.467 88.2488 133.467 87.7333V85.8667H135.333V92.4Z" fill="#312E2E"/>
<path d="M122.267 119.467C122.267 118.951 121.849 118.533 121.333 118.533C120.818 118.533 120.4 118.951 120.4 119.467V129.733C120.4 130.249 120.818 130.667 121.333 130.667C121.849 130.667 122.267 130.249 122.267 129.733V119.467Z" fill="#312E2E"/>
<path d="M108.267 133.467C107.751 133.467 107.333 133.885 107.333 134.4C107.333 134.916 107.751 135.333 108.267 135.333H116.667C117.182 135.333 117.6 134.916 117.6 134.4C117.6 133.885 117.182 133.467 116.667 133.467H108.267Z" fill="#312E2E"/>
<path d="M125.375 133C125.729 133 125.244 133.224 133.112 128.679C133.402 128.512 133.581 128.203 133.582 127.869C133.583 127.534 133.405 127.224 133.115 127.057C132.826 126.889 132.469 126.888 132.179 127.055L124.908 131.255C124.538 131.464 124.357 131.897 124.467 132.308C124.576 132.718 124.95 133.003 125.375 133Z" fill="#312E2E"/>
<path d="M128.333 122.267C128.118 122.142 127.862 122.109 127.622 122.173C127.382 122.238 127.178 122.396 127.055 122.612L122.855 129.883C122.688 130.172 122.688 130.529 122.856 130.818C123.023 131.107 123.333 131.284 123.667 131.283C124.002 131.284 124.311 131.106 124.479 130.816L128.679 123.546C128.803 123.33 128.837 123.074 128.772 122.834C128.707 122.594 128.549 122.39 128.333 122.267Z" fill="#312E2E"/>
<path d="M119 131.292C119.334 131.293 119.643 131.116 119.811 130.827C119.979 130.538 119.979 130.181 119.812 129.892L115.612 122.621C115.445 122.331 115.136 122.152 114.802 122.151C114.467 122.151 114.158 122.329 113.99 122.618C113.822 122.907 113.821 123.264 113.988 123.555L118.188 130.825C118.355 131.115 118.665 131.293 119 131.292Z" fill="#312E2E"/>
<path d="M117.759 131.255L110.488 127.055C110.198 126.888 109.841 126.889 109.551 127.057C109.262 127.224 109.084 127.534 109.085 127.869C109.085 128.203 109.264 128.512 109.555 128.679C117.395 133.205 116.937 133 117.292 133C117.717 133.003 118.09 132.718 118.2 132.308C118.31 131.897 118.128 131.464 117.759 131.255Z" fill="#312E2E"/>
<path d="M139.067 131.6H131.6C130.569 131.6 129.733 132.436 129.733 133.467V138.133H94.2667V133.467C94.2667 132.436 93.4309 131.6 92.4 131.6H84.9333C84.4179 131.6 84 132.018 84 132.533C84 133.049 84.4179 133.467 84.9333 133.467H92.4V138.133C92.4 139.164 93.2357 140 94.2667 140H129.733C130.764 140 131.6 139.164 131.6 138.133V133.467H139.067C139.582 133.467 140 133.049 140 132.533C140 132.018 139.582 131.6 139.067 131.6Z" fill="#312E2E"/>
<path d="M121.333 135.333C121.849 135.333 122.267 134.916 122.267 134.4C122.267 133.885 121.849 133.467 121.333 133.467C120.818 133.467 120.4 133.885 120.4 134.4C120.4 134.916 120.818 135.333 121.333 135.333Z" fill="#312E2E"/>
<path d="M106.4 126.933C106.915 126.933 107.333 126.515 107.333 126C107.333 125.485 106.915 125.067 106.4 125.067C105.884 125.067 105.467 125.485 105.467 126C105.467 126.515 105.884 126.933 106.4 126.933Z" fill="#312E2E"/>
<path d="M136.267 126.933C136.782 126.933 137.2 126.515 137.2 126C137.2 125.485 136.782 125.067 136.267 125.067C135.751 125.067 135.333 125.485 135.333 126C135.333 126.515 135.751 126.933 136.267 126.933Z" fill="#312E2E"/>
</svg>
