<svg width="225" height="226" viewBox="0 0 225 226" fill="none" xmlns="http://www.w3.org/2000/svg">
<g clip-path="url(#clip0)">
<path d="M123.853 93.8063L116.78 97.8122C116.502 97.9693 116.331 98.2631 116.331 98.5816V105.092H115.187V104.444C115.187 103.176 114.155 102.145 112.888 102.145C111.62 102.145 110.589 103.176 110.589 104.444V107.509C110.589 108.777 111.62 109.808 112.888 109.808C114.155 109.808 115.187 108.777 115.187 107.509V106.86H116.331V109.192C115.146 109.283 114.209 110.274 114.209 111.482V126.052V131.76C114.209 132.842 114.962 133.75 115.971 133.993C115.834 136.905 113.423 139.232 110.477 139.232C107.444 139.232 104.977 136.764 104.977 133.732V110.046C104.977 109.558 104.581 109.162 104.093 109.162C103.604 109.162 103.209 109.558 103.209 110.046V133.732C103.209 137.74 106.469 141 110.477 141C114.397 141 117.599 137.882 117.739 133.996C118.755 133.758 119.514 132.847 119.514 131.76V126.052V119.478C119.514 118.989 119.118 118.594 118.63 118.594C118.142 118.594 117.746 118.989 117.746 119.478V125.168H115.978V111.482C115.978 111.189 116.215 110.951 116.508 110.951H117.215C117.508 110.951 117.746 111.189 117.746 111.482V116.649C117.746 117.137 118.142 117.533 118.63 117.533C119.119 117.533 119.514 117.137 119.514 116.649V111.482C119.514 110.528 118.93 109.708 118.1 109.36V106.86H118.63C119.119 106.86 119.514 106.464 119.514 105.976C119.514 105.488 119.119 105.092 118.63 105.092H118.1V99.0969L124.725 95.345C125.15 95.1044 125.299 94.5647 125.058 94.1398C124.817 93.7152 124.278 93.5657 123.853 93.8063ZM113.418 107.509C113.418 107.801 113.18 108.039 112.888 108.039C112.595 108.039 112.357 107.801 112.357 107.509V104.444C112.357 104.151 112.595 103.913 112.888 103.913C113.18 103.913 113.418 104.151 113.418 104.444V107.509ZM117.746 126.937V131.76C117.746 132.052 117.508 132.291 117.215 132.291H116.508C116.215 132.291 115.977 132.053 115.977 131.76V126.937H117.746Z" fill="#312E2E"/>
<path d="M139.826 85.442C139.652 85.1408 139.317 84.9704 138.972 85.0043L129.509 85.9546C126.57 86.2496 124.419 88.8802 124.714 91.8188C124.784 92.5101 124.983 93.1721 125.308 93.7863C125.318 93.8057 125.329 93.8247 125.341 93.8433C125.71 94.4309 126.183 94.9349 126.748 95.3412C127.665 96.0012 128.745 96.3499 129.872 96.3499C131.593 96.3499 133.22 95.517 134.223 94.1217L139.778 86.4008C139.981 86.1182 140 85.7432 139.826 85.442ZM129.215 92.9766C128.947 93.3501 128.511 93.5732 128.05 93.5732C127.749 93.5732 127.46 93.4797 127.215 93.3029C127.073 93.2011 126.952 93.0757 126.856 92.9304C126.778 92.7745 126.73 92.6075 126.712 92.4332C126.634 91.6469 127.209 90.9429 127.995 90.864L130.949 90.5675L129.215 92.9766ZM132.788 93.0886C132.167 93.9519 131.189 94.4928 130.135 94.5704C130.327 94.4062 130.501 94.2184 130.651 94.0095L133.53 90.0082C133.733 89.7259 133.752 89.3509 133.578 89.0497C133.404 88.7485 133.069 88.5778 132.724 88.612L127.819 89.1044C127.56 89.1304 127.312 89.1874 127.077 89.27C127.654 88.4218 128.587 87.8243 129.685 87.7141L137.198 86.9599L132.788 93.0886Z" fill="#312E2E"/>
<path d="M104.093 108.101C104.581 108.101 104.977 107.705 104.977 107.217V102.566C104.977 98.5586 101.716 95.2981 97.708 95.2981C93.7002 95.2981 90.4396 98.5586 90.4396 102.566V117.839C90.4396 120.872 87.9722 123.339 84.9394 123.339C84.4509 123.339 84.0552 123.735 84.0552 124.223C84.0552 124.711 84.4509 125.107 84.9394 125.107C88.9473 125.107 92.2081 121.847 92.2081 117.839V102.566C92.2081 99.5337 94.6754 97.0665 97.7082 97.0665C100.741 97.0665 103.209 99.5338 103.209 102.566V107.217C103.209 107.705 103.604 108.101 104.093 108.101Z" fill="#312E2E"/>
</g>
<rect x="5.65685" y="113" width="150.683" height="150.683" transform="rotate(-45 5.65685 113)" stroke="#F5F5F5" stroke-width="8"/>
<rect x="37.1213" y="114" width="105.712" height="105.712" transform="rotate(-45 37.1213 114)" stroke="#F5F5F5" stroke-width="3"/>
<defs>
<clipPath id="clip0">
<rect width="56" height="56" fill="white" transform="translate(84 85)"/>
</clipPath>
</defs>
</svg>
