<svg width="224" height="224" viewBox="0 0 224 224" fill="none" xmlns="http://www.w3.org/2000/svg">
<rect x="5.65685" y="112" width="150" height="150" transform="rotate(-45 5.65685 112)" stroke="#F5F5F5" stroke-width="8"/>
<rect x="37.1213" y="113" width="105" height="105" transform="rotate(-45 37.1213 113)" stroke="#F5F5F5" stroke-width="3"/>
<g clip-path="url(#clip0)">
<path d="M126.423 83.9998H98.4231C97.3922 83.9998 96.5565 84.8355 96.5565 85.8664V92.3998C96.5565 93.4307 97.3922 94.2664 98.4231 94.2664H101.223V98.9331C101.223 99.2971 100.924 98.6904 106.823 108.528V111.738C106.823 112.429 106.823 112.326 109.483 116.694C109.815 117.269 110.426 117.624 111.088 117.628H111.49V121.66L91.8898 129.369C91.3536 129.576 91 130.092 91 130.666C91 131.241 91.3536 131.757 91.8898 131.964C112.647 140.308 111.387 140 112.423 140C113.459 140 112.208 140.308 132.956 131.964C133.491 131.753 133.842 131.236 133.842 130.662C133.842 130.087 133.491 129.571 132.956 129.36L113.356 121.632V117.6H113.758C114.421 117.596 115.032 117.241 115.363 116.666C117.939 112.373 118.023 112.401 118.023 111.71V108.528C123.894 98.7371 123.623 99.3064 123.623 98.9331V94.2664H126.423C127.454 94.2664 128.29 93.4307 128.29 92.3998V85.8664C128.29 84.8355 127.454 83.9998 126.423 83.9998V83.9998ZM111.49 123.638V130.069L102.446 134.241L93.6165 130.666L111.49 123.638ZM131.23 130.666L113.114 138.002C112.67 138.179 112.176 138.179 111.732 138.002L104.816 135.202L112.815 131.469C113.131 131.323 113.34 131.014 113.356 130.666V123.638L131.23 130.666ZM116.156 111.738L113.758 115.733H111.088L108.69 111.738V109.2H116.156V111.738ZM121.756 97.9998H111.49C110.974 97.9998 110.556 98.4176 110.556 98.9331C110.556 99.4486 110.974 99.8664 111.49 99.8664H121.038L116.558 107.333H108.288L103.808 99.8664H106.823C107.339 99.8664 107.756 99.4486 107.756 98.9331C107.756 98.4176 107.339 97.9998 106.823 97.9998H103.09V94.2664H121.756V97.9998ZM126.423 92.3998H98.4231V85.8664H100.29V87.7331C100.29 88.2486 100.708 88.6664 101.223 88.6664C101.739 88.6664 102.156 88.2486 102.156 87.7331V85.8664H104.023V87.7331C104.023 88.2486 104.441 88.6664 104.956 88.6664C105.472 88.6664 105.89 88.2486 105.89 87.7331V85.8664H107.756V87.7331C107.756 88.2486 108.174 88.6664 108.69 88.6664C109.205 88.6664 109.623 88.2486 109.623 87.7331V85.8664H111.49V87.7331C111.49 88.2486 111.908 88.6664 112.423 88.6664C112.939 88.6664 113.356 88.2486 113.356 87.7331V85.8664H115.223V87.7331C115.223 88.2486 115.641 88.6664 116.156 88.6664C116.672 88.6664 117.09 88.2486 117.09 87.7331V85.8664H118.956V87.7331C118.956 88.2486 119.374 88.6664 119.89 88.6664C120.405 88.6664 120.823 88.2486 120.823 87.7331V85.8664H122.69V87.7331C122.69 88.2486 123.108 88.6664 123.623 88.6664C124.139 88.6664 124.556 88.2486 124.556 87.7331V85.8664H126.423V92.3998Z" fill="#312E2E"/>
<path d="M125.281 107.576C125.598 107.471 125.835 107.205 125.902 106.878C125.97 106.551 125.858 106.213 125.608 105.991C125.359 105.77 125.01 105.698 124.693 105.803C121.016 107.016 119.532 110.404 121.184 113.941C122.351 116.452 121.399 118.608 118.776 119.541C118.305 119.715 118.056 120.23 118.211 120.707C118.367 121.184 118.872 121.452 119.355 121.315C121.037 120.887 122.425 119.703 123.114 118.11C123.803 116.517 123.714 114.694 122.873 113.176C121.697 110.628 122.659 108.444 125.281 107.576Z" fill="#312E2E"/>
<path d="M132.291 98.4107C132.528 98.3339 132.725 98.1654 132.837 97.9427C132.949 97.72 132.968 97.4617 132.888 97.2253C132.724 96.7396 132.199 96.4771 131.712 96.6373C130.033 97.0661 128.647 98.2483 127.958 99.8388C127.27 101.429 127.357 103.249 128.193 104.767C129.369 107.287 128.408 109.48 125.785 110.367C125.296 110.529 125.03 111.058 125.193 111.547C125.355 112.037 125.884 112.302 126.373 112.14C130.051 110.927 131.535 107.539 129.883 104.011C128.716 101.463 129.668 99.2787 132.291 98.4107Z" fill="#312E2E"/>
</g>
<defs>
<clipPath id="clip0">
<rect width="56" height="56" fill="white" transform="translate(84 84)"/>
</clipPath>
</defs>
</svg>
