<svg width="1920" height="560" viewBox="0 0 1920 560" fill="none" xmlns="http://www.w3.org/2000/svg">
<rect width="1920" height="560" fill="#F5F5F5"/>
<path d="M750.061 122.059C756.555 113.306 764.279 110.673 772.379 112.451C772.379 112.451 749.241 93.2021 736.697 110.707C727.743 123.084 742.508 132.213 750.061 122.059Z" fill="#F0F0F0"/>
<path d="M1215.94 435.035C1209.65 443.959 1202 446.796 1193.9 445.292C1193.9 445.292 1217.52 463.926 1229.58 446.113C1238.19 433.291 1223.19 424.675 1215.94 435.035Z" fill="#F0F0F0"/>
<path d="M820.4 506.697C811.411 500.441 808.642 492.85 810.146 484.679C810.146 484.679 791.622 508.407 809.463 520.408C822.211 528.955 830.756 513.911 820.4 506.697Z" fill="#F0F0F0"/>
<path d="M1194.62 183.976C1197.49 234.407 1244.82 235.261 1244.82 235.261C1241.47 193.857 1200.84 192.626 1200.84 192.626C1198.02 189.047 1196.17 184.812 1195.44 180.318C1197.55 182.515 1199.84 184.539 1202.27 186.369C1229.14 205.619 1274.05 166.197 1248.21 136.349C1222.37 106.501 1205.14 132.691 1202.1 141.957C1199.06 151.222 1216.18 160.419 1219.46 147.94C1222.74 135.46 1232.45 130.058 1243.22 145.615C1253.98 161.171 1233.27 197.755 1200.9 176.728C1173.9 159.052 1180.33 120.28 1149.02 82.0554C1152.71 82.7734 1159.28 85.4744 1167.51 94.8425C1181.18 110.262 1197.11 109.134 1213.65 86.7053C1212.07 88.0086 1210.23 88.9698 1208.26 89.5286C1206.29 90.0874 1204.22 90.2317 1202.19 89.9523C1200.15 89.6729 1198.2 88.976 1196.45 87.9052C1194.7 86.8345 1193.19 85.4132 1192.02 83.7308C1182.14 71.5249 1173.15 60.2763 1147.59 80.3117C1141.21 72.7275 1134.04 65.8501 1126.19 59.7977C1068.53 15.3505 1010.33 37.3006 1010.33 37.3006L1008.76 37.7792L981.413 10.4271L924.472 67.7982C913.898 62.9398 902.282 60.7896 890.67 61.5414C941.083 58.7378 941.937 11.4187 941.937 11.4187C900.684 14.8377 899.385 55.3871 899.385 55.3871C895.783 58.2042 891.527 60.0627 887.013 60.7892C889.221 58.6772 891.256 56.3905 893.096 53.9512C912.407 27.0777 873.034 -17.8481 843.162 7.86289C813.291 33.5739 839.403 50.7373 848.802 53.7802C858.201 56.8231 867.292 39.7281 854.817 36.4116C842.342 33.0952 836.839 23.3852 852.219 12.6837C867.6 1.98219 904.478 22.7014 883.39 55.0452C865.72 82.0554 826.962 75.7986 788.58 106.912C789.297 103.219 791.998 96.6546 801.397 88.449C816.811 74.9439 815.717 58.8745 793.296 42.2923C794.593 43.8813 795.547 45.7208 796.1 47.6956C796.653 49.6705 796.793 51.7383 796.511 53.7696C796.228 55.801 795.53 57.7523 794.459 59.5013C793.389 61.2504 791.969 62.7596 790.289 63.9347C778.087 73.7814 766.808 82.7392 786.871 108.382C779.291 114.75 772.416 121.914 766.364 129.751C721.864 187.258 743.841 245.518 743.841 245.518C744.08 246.441 744.319 247.16 744.558 247.775L714.242 278.067L764.142 327.985C753.342 344.533 755.29 365.594 755.529 367.919C751.223 317.625 703.955 318.275 703.955 318.275C708.432 359.303 749.104 359.303 749.104 359.303C751.736 361.491 753.718 367.133 754.88 371.543C752.652 369.39 750.252 367.423 747.703 365.662C720.36 347.166 676.715 387.886 703.271 416.948C729.827 446.009 746.438 419.375 749.206 410.11C751.975 400.844 734.612 392.023 731.673 404.639C728.734 417.255 719.164 422.862 708.022 407.682C696.88 392.502 716.43 355.303 749.343 375.372C776.993 392.228 771.832 431.137 804.028 468.575C800.337 467.993 793.775 465.532 785.162 456.3C771.217 441.291 755.188 442.898 739.261 465.805C740.811 464.455 742.623 463.44 744.583 462.823C746.543 462.205 748.61 461.999 750.653 462.217C752.697 462.436 754.673 463.073 756.459 464.091C758.245 465.108 759.802 466.483 761.032 468.13C771.286 480.063 780.548 491.072 805.464 470.182C812.074 477.537 819.453 484.162 827.474 489.944C886.398 532.886 943.885 509.09 943.885 509.09L944.876 508.748L981.549 545.434L1036.78 490.32C1053.32 501.431 1074.72 499.551 1077.01 499.312C1026.7 503.449 1027.11 550.597 1027.11 550.597C1068.12 546.255 1068.5 505.568 1068.5 505.568C1072.01 502.665 1076.19 500.7 1080.67 499.859C1078.52 502.066 1076.55 504.444 1074.79 506.97C1056.19 534.322 1096.73 578.086 1126.05 551.725C1155.38 525.364 1128.62 508.543 1119.22 505.739C1109.82 502.936 1101.1 520.27 1113.68 523.245C1126.26 526.219 1131.83 535.792 1116.62 546.904C1101.41 558.016 1064.26 538.254 1084.49 505.363C1101.58 477.806 1140.34 483.14 1177.87 451.069C1177.22 454.762 1174.72 461.326 1165.56 469.806C1150.49 483.721 1151.89 499.756 1174.86 515.757C1173.52 514.206 1172.51 512.393 1171.9 510.434C1171.3 508.474 1171.1 506.41 1171.33 504.371C1171.55 502.332 1172.2 500.362 1173.23 498.585C1174.25 496.808 1175.64 495.263 1177.29 494.046C1189.25 483.789 1200.29 474.592 1179.54 449.599C1186.91 443.035 1193.56 435.699 1199.37 427.717C1242.5 368.945 1218.98 311.471 1218.98 311.471C1218.68 310.445 1218.37 309.659 1218.1 308.975L1248.86 278.204L1188.43 217.585C1193.22 207.062 1195.35 195.518 1194.62 183.976ZM1169.22 198.302C1179.68 196.9 1187.92 186.062 1187.92 186.062C1188.64 191.187 1188.15 196.41 1186.48 201.311C1182.98 202.374 1179.55 203.676 1176.23 205.208L1169.22 198.302ZM1158.11 108.348C1167.99 128.657 1175.78 158.675 1192.87 177.719C1191.96 179.109 1190.75 180.274 1189.32 181.126C1187.89 181.979 1186.29 182.497 1184.64 182.643C1169.05 173.446 1157.29 174.608 1149.4 178.506L1126.67 155.769C1136.68 149.923 1148.1 137.136 1156.95 114.365C1157.6 112.419 1157.99 110.396 1158.11 108.348ZM1153.84 100.416C1154.7 101.783 1155.52 103.219 1156.3 104.723C1153.88 112.724 1146.9 130.913 1132.04 135.495C1123.35 138.196 1116.35 139.085 1111.53 140.555L1091.71 120.724C1094.51 117.511 1092.42 111.459 1087.6 107.63C1080.32 101.817 1083.57 84.5171 1083.57 84.5171C1088.01 103.561 1109.2 108.86 1122.53 105.407C1135.86 101.954 1139.86 84.6881 1132.38 82.876C1124.89 81.0639 1125.34 91.6287 1125.03 95.1844C1124.72 98.7402 1115.97 104.929 1101.99 99.595C1088.01 94.2613 1086.17 85.9189 1084.9 63.4218C1084.73 59.1545 1083.56 54.9867 1081.49 51.2523C1079.42 47.5178 1076.5 44.3204 1072.98 41.9162C1089.66 45.831 1105.4 53.0211 1119.28 63.0692C1133.16 73.1172 1144.91 85.8232 1153.84 100.45V100.416ZM1075.23 104.347L1065.9 95.0135C1071.24 93.6039 1076.09 90.7534 1079.91 86.7737C1077.58 92.406 1076.03 98.3298 1075.3 104.382L1075.23 104.347ZM1066.79 40.6854C1076.15 47.2841 1086.72 61.1995 1081.08 76.3799C1076.6 88.4832 1067.78 90.8423 1060.16 89.2696L1044.92 74.0208C1043.75 68.2768 1043.04 62.909 1034.08 62.4303H1033.36L1012.04 41.0273C1030.13 37.7551 1048.66 37.6394 1066.79 40.6854ZM981.584 28.9582L1026.22 73.6105C1028.17 79.1151 1033.77 85.748 1043.65 91.4235L1044.37 91.7654L1103.74 151.154C1103.74 151.598 1103.74 151.974 1103.74 152.453C1104.08 154.441 1105.1 156.249 1106.63 157.565C1108.16 158.881 1110.09 159.625 1112.11 159.667L1138.97 186.54C1137.69 187.952 1136.54 189.486 1135.56 191.122C1138.08 190.544 1140.69 190.474 1143.25 190.917L1164.54 212.217C1160.56 215.341 1157.27 219.252 1154.87 223.705L981.584 50.1219L943.988 87.731C941.89 83.0516 938.934 78.8071 935.272 75.2174L981.584 28.9582ZM1151.79 242.099C1156.61 241.595 1161.33 240.445 1165.84 238.68L1205.21 278.067L1025.71 457.668C1023.08 457.345 1020.41 457.437 1017.81 457.942C1018.12 460.094 1018.54 462.229 1019.08 464.335L981.481 501.944L796.919 317.318C797.305 314.509 797.225 311.655 796.68 308.873C794.376 309.205 792.093 309.673 789.844 310.274L757.956 278.375L933.461 102.57C938.276 104.573 943.547 105.223 948.704 104.45C948.166 99.7618 947.017 95.1642 945.286 90.7739L981.584 54.3614L1153.74 226.577C1151.68 231.474 1151.01 236.848 1151.82 242.099H1151.79ZM908.066 69.6102C909.146 73.2336 910.483 76.7756 912.065 80.2092L905.025 87.2523C903.863 76.6192 892.789 68.2084 892.789 68.2084C897.921 67.4782 903.153 67.9582 908.066 69.6102ZM884.449 63.1825C885.844 64.0895 887.012 65.3035 887.865 66.7317C888.718 68.1599 889.233 69.7643 889.371 71.4223C880.006 87.2181 881.305 98.9795 885.304 107.014L862.473 129.716C856.731 119.459 843.948 108.006 820.912 98.9454C818.969 98.282 816.946 97.8796 814.897 97.7487C835.301 87.9703 865.344 80.2092 884.415 63.1825H884.449ZM807.07 102.125C808.437 101.27 809.873 100.45 811.377 99.6633C819.374 102.091 837.523 109.134 842.137 123.973C844.871 132.93 845.76 140.11 847.264 144.999L827.611 164.659C824.467 161.24 818.144 163.462 814.145 168.454C808.335 175.736 791.041 172.454 791.041 172.454C810.112 168.078 815.444 147.017 811.992 133.341C808.54 119.665 791.314 116.246 789.468 123.665C787.623 131.084 798.218 130.708 801.738 131.016C805.259 131.323 811.547 140.179 806.181 154.06C800.815 167.941 792.51 169.89 769.987 171.155C765.724 171.327 761.559 172.488 757.823 174.547C754.086 176.607 750.878 179.507 748.455 183.019C752.38 166.323 759.584 150.574 769.646 136.687C779.709 122.8 792.43 111.052 807.07 102.125ZM801.738 190.575C800.38 185.018 797.463 179.964 793.33 176.01C799.149 178.444 805.282 180.044 811.547 180.762L801.738 190.575ZM747.224 189.071C753.821 179.737 767.731 169.206 782.906 174.847C795.518 179.531 797.569 188.934 795.552 196.729L781.471 210.815C775.387 212.115 769.406 212.354 768.927 221.825C768.899 222.326 768.899 222.828 768.927 223.329L747.634 244.629C744.255 226.276 744.116 207.472 747.224 189.071ZM781.402 229.073C788.161 225.47 793.694 219.935 797.295 213.175L858.337 152.248H858.987C860.874 151.94 862.603 151.008 863.898 149.601C865.193 148.194 865.979 146.393 866.13 144.487L893.472 117.134C894.818 118.316 896.271 119.369 897.813 120.28C897.278 117.912 897.197 115.464 897.574 113.066L919.106 91.5261C922.247 95.5062 926.181 98.7895 930.658 101.168L753.718 278.067L786.597 311.129C781.636 312.755 777.006 315.256 772.926 318.514L732.596 278.067L781.402 229.073ZM763.356 350.345C768.925 348.529 774.251 346.037 779.215 342.926L790.665 354.38C775.695 346.824 762.365 365.594 762.365 365.594C761.481 360.504 761.821 355.277 763.356 350.345ZM794.117 442.453C783.624 422.452 774.977 392.673 757.341 374.073C758.209 372.653 759.39 371.449 760.794 370.555C762.198 369.66 763.787 369.098 765.441 368.911C784.581 379.475 797.569 375.065 805.259 369.184L828.295 392.057C817.597 396.946 804.609 410.281 795.313 436.504C794.657 438.427 794.255 440.427 794.117 442.453ZM798.628 450.249C797.739 448.915 796.885 447.514 796.031 446.009C798.218 437.906 804.678 419.546 819.374 414.554C830.414 410.793 838.787 410.007 843.299 407.374L862.439 426.521C856.594 428.948 858.645 436.778 864.626 441.188C872.043 446.796 869.343 464.164 869.343 464.164C864.387 445.257 843.025 440.573 829.799 444.471C816.572 448.368 813.085 465.634 820.605 467.241C828.124 468.848 827.44 458.283 827.44 454.728C827.44 451.172 836.258 444.71 850.34 449.633C864.421 454.557 866.574 462.865 868.591 485.294C868.879 489.562 870.163 493.704 872.342 497.385C874.52 501.067 877.532 504.186 881.134 506.492C864.358 503.048 848.434 496.303 834.287 486.647C820.14 476.992 808.054 464.619 798.731 450.249H798.628ZM877.238 441.154L888.687 452.608C882.604 453.951 877.093 457.167 872.931 461.805C875.499 455.17 876.965 448.16 877.272 441.052L877.238 441.154ZM887.491 507.483C877.956 501.158 866.984 487.55 872.179 472.233C876.862 458.557 887.389 456.813 895.591 459.412L907.896 471.823C909.57 478.114 909.605 484.576 919.516 484.815C919.995 484.815 920.371 484.815 920.815 484.815L941.664 505.671C923.821 509.379 905.473 509.992 887.423 507.483H887.491ZM926.557 472.096C923.238 466.225 918.35 461.395 912.441 458.147L813.94 359.508L814.145 359.098H813.666L788.956 334.379C792.461 330.403 794.958 325.642 796.236 320.497L981.584 506.013L1020 467.583C1021.55 472.627 1023.99 477.352 1027.21 481.533L981.584 527.211L926.557 472.096ZM1059.41 491.619C1057.58 485.884 1055.03 480.404 1051.82 475.31L1064.36 462.762L1063.65 464.233C1055.92 479.174 1074.72 492.645 1074.72 492.645C1069.59 493.516 1064.34 493.164 1059.37 491.619H1059.41ZM1083.33 497.431C1081.92 496.557 1080.73 495.373 1079.84 493.969C1078.95 492.566 1078.39 490.979 1078.21 489.328C1089.11 469.771 1084.32 456.642 1078.21 448.984L1101.17 426.008C1105.72 436.846 1119.05 450.283 1145.6 459.89C1147.57 460.496 1149.6 460.841 1151.65 460.916C1131.59 471.344 1101.72 479.857 1083.13 497.431H1083.33ZM1159.62 456.403C1158.28 457.292 1156.85 458.147 1155.38 459.001C1147.31 456.779 1128.99 450.215 1124.04 435.479C1120.07 423.786 1119.49 414.965 1116.52 410.691L1135.86 391.339C1137.74 398.451 1146.12 396.536 1150.83 390.279C1156.4 382.928 1173.49 385.732 1173.49 385.732C1154.56 390.621 1149.77 411.922 1153.57 425.187C1157.36 438.453 1174.69 442.009 1176.33 434.453C1177.97 426.897 1167.38 427.615 1163.86 427.41C1160.34 427.205 1153.91 418.589 1158.87 404.502C1163.82 390.416 1172.16 388.33 1194.62 386.416C1198.88 386.144 1203.02 384.877 1206.71 382.716C1210.39 380.555 1213.52 377.56 1215.84 373.971C1212.37 390.777 1205.59 406.725 1195.91 420.888C1186.22 435.051 1173.81 447.147 1159.41 456.471L1159.62 456.403ZM1162.11 365.047C1163.22 371.63 1166.51 377.649 1171.44 382.142C1164.42 379.352 1156.95 377.846 1149.4 377.697L1162.11 365.047ZM1217.21 367.885C1210.85 377.39 1197.18 388.399 1181.9 383.065C1166.62 377.732 1166.38 365.355 1170.25 356.944L1179.17 348.02C1186 345.456 1194.41 346.892 1194.68 335.712C1194.7 334.723 1194.6 333.736 1194.38 332.772L1215.23 311.916C1219.11 330.344 1219.71 349.315 1217 367.953L1217.21 367.885ZM1230.88 277.999L1176.19 332.498C1174.81 333.69 1173.52 334.982 1172.33 336.362L1043.31 465.429C1039.3 461.939 1034.5 459.475 1029.33 458.249L1209.45 278.067L1168.78 237.381C1173.36 235.178 1177.5 232.141 1180.98 228.423L1230.88 277.999Z" fill="#F0F0F0"/>
<path d="M1133.81 43.4213C1142.6 49.8832 1145.19 57.6444 1143.45 65.7132C1143.45 65.7132 1162.66 42.5323 1145.16 30.0529C1132.48 21.0951 1123.63 35.8653 1133.81 43.4213Z" fill="#F0F0F0"/>
</svg>
