<svg width="1920" height="630" viewBox="0 0 1920 630" fill="none" xmlns="http://www.w3.org/2000/svg">
<rect width="1920" height="560" fill="#F5F5F5"/>
<path d="M1031.06 192.059C1037.56 183.306 1045.28 180.673 1053.38 182.451C1053.38 182.451 1030.24 163.202 1017.7 180.708C1008.74 193.084 1023.51 202.213 1031.06 192.059Z" fill="#F0F0F0"/>
<path d="M1496.94 505.035C1490.65 513.959 1483 516.796 1474.9 515.292C1474.9 515.292 1498.52 533.926 1510.58 516.113C1519.19 503.291 1504.19 494.675 1496.94 505.035Z" fill="#F0F0F0"/>
<path d="M1101.4 576.697C1092.41 570.441 1089.64 562.85 1091.15 554.679C1091.15 554.679 1072.62 578.407 1090.46 590.408C1103.21 598.955 1111.76 583.911 1101.4 576.697Z" fill="#F0F0F0"/>
<path d="M1475.62 253.976C1478.49 304.407 1525.82 305.261 1525.82 305.261C1522.47 263.857 1481.84 262.626 1481.84 262.626C1479.02 259.047 1477.17 254.812 1476.44 250.318C1478.55 252.515 1480.84 254.539 1483.27 256.37C1510.14 275.619 1555.05 236.197 1529.21 206.349C1503.37 176.501 1486.14 202.691 1483.1 211.957C1480.06 221.222 1497.18 230.419 1500.46 217.94C1503.74 205.46 1513.45 200.058 1524.22 215.615C1534.98 231.171 1514.27 267.755 1481.9 246.728C1454.9 229.052 1461.33 190.28 1430.02 152.055C1433.71 152.773 1440.28 155.474 1448.51 164.843C1462.18 180.262 1478.11 179.134 1494.65 156.705C1493.07 158.009 1491.23 158.97 1489.26 159.529C1487.29 160.087 1485.22 160.232 1483.19 159.952C1481.15 159.673 1479.2 158.976 1477.45 157.905C1475.7 156.835 1474.19 155.413 1473.02 153.731C1463.14 141.525 1454.15 130.276 1428.59 150.312C1422.21 142.728 1415.04 135.85 1407.19 129.798C1349.53 85.3506 1291.33 107.301 1291.33 107.301L1289.76 107.779L1262.41 80.4272L1205.47 137.798C1194.9 132.94 1183.28 130.79 1171.67 131.541C1222.08 128.738 1222.94 81.4187 1222.94 81.4187C1181.68 84.8377 1180.39 125.387 1180.39 125.387C1176.78 128.204 1172.53 130.063 1168.01 130.789C1170.22 128.677 1172.26 126.39 1174.1 123.951C1193.41 97.0778 1154.03 52.1519 1124.16 77.8629C1094.29 103.574 1120.4 120.737 1129.8 123.78C1139.2 126.823 1148.29 109.728 1135.82 106.412C1123.34 103.095 1117.84 93.3852 1133.22 82.6837C1148.6 71.9822 1185.48 92.7014 1164.39 125.045C1146.72 152.055 1107.96 145.799 1069.58 176.912C1070.3 173.219 1073 166.655 1082.4 158.449C1097.81 144.944 1096.72 128.875 1074.3 112.292C1075.59 113.881 1076.55 115.721 1077.1 117.696C1077.65 119.671 1077.79 121.738 1077.51 123.77C1077.23 125.801 1076.53 127.752 1075.46 129.501C1074.39 131.25 1072.97 132.76 1071.29 133.935C1059.09 143.781 1047.81 152.739 1067.87 178.382C1060.29 184.75 1053.42 191.914 1047.36 199.751C1002.86 257.258 1024.84 315.518 1024.84 315.518C1025.08 316.442 1025.32 317.16 1025.56 317.775L995.242 348.067L1045.14 397.985C1034.34 414.533 1036.29 435.594 1036.53 437.919C1032.22 387.625 984.955 388.275 984.955 388.275C989.432 429.303 1030.1 429.303 1030.1 429.303C1032.74 431.491 1034.72 437.133 1035.88 441.543C1033.65 439.39 1031.25 437.423 1028.7 435.662C1001.36 417.166 957.715 457.886 984.271 486.948C1010.83 516.009 1027.44 489.375 1030.21 480.11C1032.97 470.844 1015.61 462.023 1012.67 474.639C1009.73 487.255 1000.16 492.863 989.022 477.682C977.88 462.502 997.43 425.303 1030.34 445.372C1057.99 462.228 1052.83 501.137 1085.03 538.575C1081.34 537.993 1074.77 535.532 1066.16 526.301C1052.22 511.291 1036.19 512.898 1020.26 535.805C1021.81 534.455 1023.62 533.44 1025.58 532.823C1027.54 532.205 1029.61 531.999 1031.65 532.217C1033.7 532.436 1035.67 533.073 1037.46 534.091C1039.25 535.108 1040.8 536.483 1042.03 538.13C1052.29 550.063 1061.55 561.072 1086.46 540.182C1093.07 547.537 1100.45 554.162 1108.47 559.944C1167.4 602.886 1224.89 579.09 1224.89 579.09L1225.88 578.748L1262.55 615.434L1317.78 560.32C1334.32 571.431 1355.72 569.551 1358.01 569.312C1307.7 573.449 1308.11 620.597 1308.11 620.597C1349.12 616.255 1349.5 575.568 1349.5 575.568C1353.01 572.665 1357.19 570.7 1361.67 569.859C1359.52 572.066 1357.55 574.444 1355.79 576.97C1337.19 604.322 1377.73 648.086 1407.05 621.725C1436.38 595.364 1409.62 578.543 1400.22 575.739C1390.82 572.936 1382.1 590.27 1394.68 593.245C1407.26 596.219 1412.83 605.793 1397.62 616.904C1382.41 628.016 1345.26 608.254 1365.49 575.363C1382.58 547.806 1421.34 553.14 1458.87 521.069C1458.22 524.762 1455.72 531.326 1446.56 539.806C1431.49 553.721 1432.89 569.756 1455.86 585.757C1454.52 584.206 1453.51 582.393 1452.9 580.434C1452.3 578.474 1452.1 576.41 1452.33 574.371C1452.55 572.332 1453.2 570.362 1454.23 568.585C1455.25 566.808 1456.64 565.263 1458.29 564.046C1470.25 553.789 1481.29 544.592 1460.54 519.599C1467.91 513.035 1474.56 505.699 1480.37 497.718C1523.5 438.945 1499.98 381.471 1499.98 381.471C1499.68 380.445 1499.37 379.659 1499.1 378.975L1529.86 348.204L1469.43 287.585C1474.22 277.062 1476.35 265.518 1475.62 253.976ZM1450.22 268.302C1460.68 266.9 1468.92 256.062 1468.92 256.062C1469.64 261.187 1469.15 266.41 1467.48 271.311C1463.98 272.374 1460.55 273.676 1457.23 275.208L1450.22 268.302ZM1439.11 178.348C1448.99 198.657 1456.78 228.676 1473.87 247.719C1472.96 249.109 1471.75 250.274 1470.32 251.126C1468.89 251.979 1467.29 252.497 1465.64 252.643C1450.05 243.446 1438.29 244.608 1430.4 248.506L1407.67 225.769C1417.68 219.923 1429.1 207.136 1437.95 184.365C1438.6 182.419 1438.99 180.396 1439.11 178.348ZM1434.84 170.416C1435.7 171.783 1436.52 173.219 1437.3 174.724C1434.88 182.724 1427.9 200.913 1413.04 205.495C1404.35 208.196 1397.35 209.085 1392.53 210.555L1372.71 190.725C1375.51 187.511 1373.42 181.459 1368.6 177.63C1361.32 171.817 1364.57 154.517 1364.57 154.517C1369.01 173.561 1390.2 178.861 1403.53 175.407C1416.86 171.954 1420.86 154.688 1413.38 152.876C1405.89 151.064 1406.34 161.629 1406.03 165.184C1405.72 168.74 1396.97 174.929 1382.99 169.595C1369.01 164.261 1367.17 155.919 1365.9 133.422C1365.73 129.155 1364.56 124.987 1362.49 121.252C1360.42 117.518 1357.5 114.32 1353.98 111.916C1370.66 115.831 1386.4 123.021 1400.28 133.069C1414.16 143.117 1425.91 155.823 1434.84 170.45V170.416ZM1356.23 174.347L1346.9 165.014C1352.24 163.604 1357.09 160.753 1360.91 156.774C1358.58 162.406 1357.03 168.33 1356.3 174.382L1356.23 174.347ZM1347.79 110.685C1357.15 117.284 1367.72 131.199 1362.08 146.38C1357.6 158.483 1348.78 160.842 1341.16 159.27L1325.92 144.021C1324.75 138.277 1324.04 132.909 1315.08 132.43H1314.36L1293.04 111.027C1311.13 107.755 1329.66 107.639 1347.79 110.685ZM1262.58 98.9582L1307.22 143.611C1309.17 149.115 1314.77 155.748 1324.65 161.424L1325.37 161.765L1384.74 221.154C1384.74 221.598 1384.74 221.974 1384.74 222.453C1385.08 224.441 1386.1 226.249 1387.63 227.565C1389.16 228.881 1391.09 229.625 1393.11 229.667L1419.97 256.54C1418.69 257.952 1417.54 259.486 1416.56 261.122C1419.08 260.544 1421.69 260.474 1424.25 260.917L1445.54 282.217C1441.56 285.341 1438.27 289.252 1435.87 293.705L1262.58 120.122L1224.99 157.731C1222.89 153.052 1219.93 148.807 1216.27 145.217L1262.58 98.9582ZM1432.79 312.099C1437.61 311.596 1442.33 310.446 1446.84 308.68L1486.21 348.067L1306.71 527.668C1304.08 527.345 1301.41 527.437 1298.81 527.942C1299.12 530.094 1299.54 532.229 1300.08 534.335L1262.48 571.944L1077.92 387.318C1078.31 384.509 1078.22 381.655 1077.68 378.873C1075.38 379.205 1073.09 379.673 1070.84 380.274L1038.96 348.375L1214.46 172.57C1219.28 174.573 1224.55 175.223 1229.7 174.45C1229.17 169.762 1228.02 165.164 1226.29 160.774L1262.58 124.361L1434.74 296.577C1432.68 301.474 1432.01 306.848 1432.82 312.099H1432.79ZM1189.07 139.61C1190.15 143.234 1191.48 146.776 1193.07 150.209L1186.02 157.252C1184.86 146.619 1173.79 138.208 1173.79 138.208C1178.92 137.478 1184.15 137.958 1189.07 139.61ZM1165.45 133.183C1166.84 134.089 1168.01 135.304 1168.86 136.732C1169.72 138.16 1170.23 139.764 1170.37 141.422C1161.01 157.218 1162.3 168.98 1166.3 177.014L1143.47 199.716C1137.73 189.459 1124.95 178.006 1101.91 168.945C1099.97 168.282 1097.95 167.88 1095.9 167.749C1116.3 157.97 1146.34 150.209 1165.42 133.183H1165.45ZM1088.07 172.125C1089.44 171.27 1090.87 170.45 1092.38 169.663C1100.37 172.091 1118.52 179.134 1123.14 193.973C1125.87 202.93 1126.76 210.11 1128.26 214.999L1108.61 234.659C1105.47 231.24 1099.14 233.462 1095.14 238.454C1089.33 245.736 1072.04 242.454 1072.04 242.454C1091.11 238.078 1096.44 217.017 1092.99 203.341C1089.54 189.665 1072.31 186.246 1070.47 193.665C1068.62 201.084 1079.22 200.708 1082.74 201.016C1086.26 201.323 1092.55 210.179 1087.18 224.06C1081.82 237.941 1073.51 239.89 1050.99 241.155C1046.72 241.327 1042.56 242.488 1038.82 244.548C1035.09 246.607 1031.88 249.507 1029.45 253.019C1033.38 236.323 1040.58 220.574 1050.65 206.687C1060.71 192.8 1073.43 181.052 1088.07 172.125ZM1082.74 260.575C1081.38 255.018 1078.46 249.964 1074.33 246.01C1080.15 248.444 1086.28 250.044 1092.55 250.762L1082.74 260.575ZM1028.22 259.071C1034.82 249.737 1048.73 239.206 1063.91 244.847C1076.52 249.531 1078.57 258.934 1076.55 266.729L1062.47 280.815C1056.39 282.115 1050.41 282.354 1049.93 291.825C1049.9 292.326 1049.9 292.828 1049.93 293.329L1028.63 314.629C1025.25 296.276 1025.12 277.472 1028.22 259.071ZM1062.4 299.073C1069.16 295.47 1074.69 289.935 1078.3 283.175L1139.34 222.248H1139.99C1141.87 221.94 1143.6 221.008 1144.9 219.601C1146.19 218.194 1146.98 216.393 1147.13 214.487L1174.47 187.135C1175.82 188.316 1177.27 189.369 1178.81 190.28C1178.28 187.912 1178.2 185.464 1178.57 183.066L1200.11 161.526C1203.25 165.506 1207.18 168.79 1211.66 171.168L1034.72 348.067L1067.6 381.129C1062.64 382.755 1058.01 385.256 1053.93 388.514L1013.6 348.067L1062.4 299.073ZM1044.36 420.345C1049.93 418.529 1055.25 416.037 1060.21 412.926L1071.66 424.38C1056.69 416.824 1043.36 435.594 1043.36 435.594C1042.48 430.504 1042.82 425.278 1044.36 420.345ZM1075.12 512.453C1064.62 492.452 1055.98 462.673 1038.34 444.073C1039.21 442.653 1040.39 441.449 1041.79 440.555C1043.2 439.66 1044.79 439.098 1046.44 438.911C1065.58 449.475 1078.57 445.065 1086.26 439.184L1109.29 462.057C1098.6 466.946 1085.61 480.281 1076.31 506.504C1075.66 508.427 1075.25 510.427 1075.12 512.453ZM1079.63 520.249C1078.74 518.915 1077.88 517.514 1077.03 516.009C1079.22 507.906 1085.68 489.546 1100.37 484.554C1111.41 480.793 1119.79 480.007 1124.3 477.374L1143.44 496.521C1137.59 498.948 1139.64 506.778 1145.63 511.188C1153.04 516.796 1150.34 534.164 1150.34 534.164C1145.39 515.257 1124.03 510.573 1110.8 514.471C1097.57 518.368 1094.09 535.634 1101.6 537.241C1109.12 538.848 1108.44 528.284 1108.44 524.728C1108.44 521.172 1117.26 514.71 1131.34 519.633C1145.42 524.557 1147.57 532.865 1149.59 555.294C1149.88 559.562 1151.16 563.704 1153.34 567.385C1155.52 571.067 1158.53 574.186 1162.13 576.492C1145.36 573.048 1129.43 566.303 1115.29 556.647C1101.14 546.992 1089.05 534.619 1079.73 520.249H1079.63ZM1158.24 511.154L1169.69 522.608C1163.6 523.951 1158.09 527.167 1153.93 531.805C1156.5 525.17 1157.96 518.16 1158.27 511.052L1158.24 511.154ZM1168.49 577.483C1158.96 571.158 1147.98 557.55 1153.18 542.233C1157.86 528.557 1168.39 526.813 1176.59 529.412L1188.9 541.823C1190.57 548.114 1190.6 554.576 1200.52 554.815C1200.99 554.815 1201.37 554.815 1201.81 554.815L1222.66 575.671C1204.82 579.379 1186.47 579.992 1168.42 577.483H1168.49ZM1207.56 542.096C1204.24 536.225 1199.35 531.395 1193.44 528.147L1094.94 429.508L1095.14 429.098H1094.67L1069.96 404.379C1073.46 400.403 1075.96 395.642 1077.24 390.497L1262.58 576.013L1301 537.583C1302.55 542.627 1304.99 547.352 1308.21 551.533L1262.58 597.211L1207.56 542.096ZM1340.41 561.619C1338.58 555.884 1336.03 550.404 1332.82 545.31L1345.36 532.762L1344.65 534.233C1336.92 549.174 1355.72 562.645 1355.72 562.645C1350.59 563.516 1345.34 563.164 1340.37 561.619H1340.41ZM1364.33 567.431C1362.92 566.557 1361.73 565.373 1360.84 563.969C1359.95 562.566 1359.39 560.979 1359.21 559.328C1370.11 539.771 1365.32 526.642 1359.21 518.984L1382.17 496.008C1386.72 506.846 1400.05 520.283 1426.6 529.89C1428.57 530.496 1430.6 530.841 1432.65 530.916C1412.59 541.344 1382.72 549.857 1364.13 567.431H1364.33ZM1440.62 526.403C1439.28 527.292 1437.85 528.147 1436.38 529.001C1428.31 526.779 1409.99 520.215 1405.04 505.479C1401.07 493.786 1400.49 484.965 1397.52 480.691L1416.86 461.339C1418.74 468.451 1427.12 466.536 1431.83 460.279C1437.4 452.928 1454.49 455.732 1454.49 455.732C1435.56 460.621 1430.77 481.922 1434.57 495.187C1438.36 508.453 1455.69 512.009 1457.33 504.453C1458.97 496.897 1448.38 497.615 1444.86 497.41C1441.34 497.205 1434.91 488.589 1439.87 474.502C1444.82 460.416 1453.16 458.331 1475.62 456.416C1479.88 456.145 1484.02 454.877 1487.71 452.716C1491.39 450.555 1494.52 447.56 1496.84 443.971C1493.37 460.777 1486.59 476.725 1476.91 490.888C1467.22 505.051 1454.81 517.147 1440.41 526.471L1440.62 526.403ZM1443.11 435.047C1444.22 441.63 1447.51 447.649 1452.44 452.142C1445.42 449.352 1437.95 447.846 1430.4 447.697L1443.11 435.047ZM1498.21 437.885C1491.85 447.39 1478.18 458.399 1462.9 453.065C1447.62 447.732 1447.38 435.355 1451.25 426.944L1460.17 418.02C1467 415.456 1475.41 416.892 1475.68 405.712C1475.7 404.723 1475.6 403.736 1475.38 402.772L1496.23 381.916C1500.11 400.345 1500.71 419.315 1498 437.953L1498.21 437.885ZM1511.88 347.999L1457.19 402.498C1455.81 403.691 1454.52 404.982 1453.33 406.362L1324.31 535.429C1320.3 531.939 1315.5 529.475 1310.33 528.249L1490.45 348.067L1449.78 307.381C1454.36 305.178 1458.5 302.141 1461.98 298.423L1511.88 347.999Z" fill="#F0F0F0"/>
<path d="M1414.81 113.421C1423.6 119.883 1426.19 127.644 1424.45 135.713C1424.45 135.713 1443.66 112.532 1426.16 100.053C1413.48 91.0951 1404.63 105.865 1414.81 113.421Z" fill="#F0F0F0"/>
</svg>
