<svg width="32" height="32" viewBox="0 0 32 32" fill="none" xmlns="http://www.w3.org/2000/svg">
<path d="M23.1816 21.3536C23.2073 21.3543 23.2329 21.3546 23.2584 21.3545C24.9364 21.3545 26.3219 20.0534 26.3634 18.4205C26.3732 18.0316 26.3056 17.6445 26.1646 17.2819C26.0237 16.9192 25.8121 16.5882 25.5421 16.308C25.2564 16.0083 24.914 15.7684 24.5348 15.6021C24.1556 15.4358 23.7471 15.3465 23.3331 15.3393C21.6223 15.2996 20.1935 16.6146 20.1513 18.2724C20.1416 18.6613 20.2092 19.0484 20.3501 19.411C20.4911 19.7736 20.7027 20.1047 20.9726 20.3849C21.2584 20.6846 21.6008 20.9245 21.98 21.0908C22.3592 21.2571 22.7676 21.3464 23.1816 21.3536ZM20.9011 18.2916C20.9323 17.0653 21.9832 16.0885 23.2566 16.0885C23.2761 16.0885 23.2957 16.0885 23.3154 16.0892C23.6308 16.0943 23.942 16.1619 24.231 16.2883C24.52 16.4146 24.781 16.597 24.9989 16.825C25.2007 17.034 25.3589 17.2809 25.4644 17.5515C25.5699 17.8221 25.6207 18.111 25.6137 18.4014C25.582 19.6465 24.4998 20.6353 23.1993 20.6038C22.884 20.5987 22.5728 20.531 22.2838 20.4047C21.9948 20.2783 21.7337 20.0959 21.5158 19.8679C21.3141 19.6589 21.1559 19.412 21.0504 19.1414C20.9449 18.8708 20.8941 18.5819 20.9011 18.2916Z" fill="#9E9797"/>
<path d="M29.5728 0.703979H2.42725C1.26119 0.703979 0.3125 1.62442 0.3125 2.75573V21.3966C0.3125 22.5279 1.26119 23.4484 2.42725 23.4484H18.7859L16.902 29.9524C16.8818 30.0223 16.8823 30.0966 16.9035 30.1662C16.9248 30.2358 16.9658 30.2977 17.0216 30.3444C17.0775 30.3911 17.1457 30.4205 17.2179 30.4291C17.2902 30.4377 17.3634 30.4251 17.4286 30.3928L19.6324 29.3009L21.1796 31.1608C21.223 31.2129 21.2797 31.2523 21.3437 31.2748C21.4076 31.2973 21.4765 31.302 21.543 31.2884C21.6094 31.2749 21.6709 31.2435 21.721 31.1978C21.771 31.152 21.8077 31.0936 21.8272 31.0286L23.7058 24.7594L25.1634 30.6469C25.1797 30.7126 25.2135 30.7728 25.2613 30.8209C25.309 30.869 25.3689 30.9033 25.4346 30.9201C25.5002 30.9368 25.5692 30.9355 25.6342 30.9162C25.6992 30.8969 25.7577 30.8604 25.8036 30.8105L27.4441 29.025L29.5897 30.2195C29.6558 30.2563 29.7316 30.2722 29.8069 30.2651C29.8823 30.2581 29.9537 30.2284 30.0119 30.1799C30.07 30.1315 30.1122 30.0666 30.1328 29.9937C30.1533 29.9209 30.1514 29.8436 30.1272 29.7719L27.9897 23.4484H29.5724C30.7385 23.4484 31.6872 22.5279 31.6872 21.3966V2.75573C31.6875 1.62442 30.7388 0.703979 29.5728 0.703979ZM21.3093 30.1437L20.0196 28.5937C19.9656 28.5289 19.8914 28.4841 19.8089 28.4667C19.7264 28.4492 19.6404 28.4601 19.5648 28.4975L17.8596 29.3425L19.7728 22.7372C19.8396 22.9826 19.9516 23.2072 20.1809 23.34C20.5368 23.5463 20.9481 23.39 21.311 23.252C21.4709 23.1912 21.7384 23.0895 21.8249 23.1135C21.9018 23.1375 22.0687 23.3529 22.1687 23.4815C22.4099 23.7923 22.6833 24.144 23.1028 24.1584L21.3093 30.1437ZM18.983 19.3494C18.9035 19.038 18.6376 18.8162 18.3804 18.6017C18.2565 18.4984 18.0273 18.3073 18.0072 18.2224C18.0314 18.1385 18.2703 17.9589 18.3993 17.8618C18.6671 17.6604 18.944 17.452 19.0393 17.1449C19.1373 16.8292 19.0252 16.4943 18.9169 16.1704C18.8684 16.0254 18.7794 15.759 18.7981 15.6722C18.8693 15.6181 19.1512 15.5888 19.3047 15.5729C19.6449 15.5375 19.9967 15.501 20.2422 15.2799C20.4859 15.06 20.5576 14.715 20.6267 14.3814C20.6589 14.2261 20.7184 13.9387 20.7776 13.8824C20.8633 13.8699 21.1214 13.9824 21.2618 14.0432C21.5791 14.1812 21.9073 14.3239 22.235 14.2492C22.5522 14.1769 22.7798 13.911 22.9999 13.6539C23.1067 13.5289 23.3056 13.2967 23.3834 13.2837C23.4661 13.3006 23.6534 13.5419 23.754 13.6715C23.9614 13.9387 24.1759 14.2153 24.4891 14.3022C24.8128 14.3922 25.1472 14.2652 25.4704 14.1422C25.6217 14.0848 25.8723 13.9897 25.9586 14.0041C26.0178 14.0712 26.0622 14.3551 26.0863 14.5095C26.1389 14.8458 26.1933 15.1936 26.4261 15.4249C26.6602 15.6576 27.0095 15.7112 27.3474 15.7631C27.4994 15.7865 27.7786 15.8294 27.8474 15.8865C27.8614 15.9744 27.7592 16.235 27.7036 16.377C27.579 16.6947 27.4501 17.0234 27.5319 17.3435C27.6114 17.6549 27.8773 17.8767 28.1345 18.0912C28.2584 18.1945 28.4876 18.3857 28.5076 18.4705C28.4834 18.5544 28.2446 18.734 28.1156 18.8312C27.8478 19.0326 27.5709 19.2409 27.4756 19.5481C27.3776 19.8638 27.4896 20.1987 27.598 20.5225C27.6465 20.6675 27.7355 20.9339 27.7168 21.0209C27.6456 21.0749 27.3637 21.1041 27.2102 21.12C26.87 21.1554 26.5182 21.1919 26.2727 21.413C26.0289 21.6329 25.9573 21.9779 25.8883 22.3115C25.8561 22.4669 25.7966 22.7543 25.7373 22.8106C25.6516 22.8231 25.3936 22.7106 25.2532 22.6497C24.9358 22.5117 24.6075 22.3692 24.2799 22.4435C23.964 22.5155 23.737 22.7795 23.5178 23.0356C23.5143 23.0382 23.5109 23.041 23.5075 23.0437C23.5041 23.0465 23.4997 23.05 23.4958 23.0534C23.4908 23.0576 23.4858 23.062 23.481 23.0667C23.4768 23.0709 23.4726 23.075 23.4685 23.0792C23.4644 23.0834 23.4606 23.0877 23.4568 23.092C23.4531 23.0964 23.4483 23.1022 23.4443 23.1074C23.4411 23.1116 23.4381 23.1158 23.4349 23.1199C23.4309 23.1255 23.4271 23.1312 23.4234 23.137C23.4205 23.1416 23.4178 23.1462 23.4151 23.1509C23.4132 23.154 23.4111 23.1571 23.4094 23.1604C23.3071 23.2755 23.1879 23.3993 23.1316 23.4086C23.049 23.3917 22.8617 23.1504 22.7611 23.0211C22.5536 22.7539 22.3391 22.4777 22.0259 22.3905C21.9509 22.3699 21.8734 22.3597 21.7956 22.3601C21.5452 22.3601 21.2916 22.4565 21.0444 22.5504C20.8931 22.6079 20.6426 22.703 20.5561 22.6885C20.497 22.6214 20.4526 22.3375 20.4284 22.1832C20.3758 21.8468 20.3214 21.499 20.0887 21.2677C19.8546 21.0351 19.5052 20.9814 19.1674 20.9295C19.0153 20.9062 18.7361 20.8633 18.6674 20.8061C18.6533 20.7182 18.7556 20.4576 18.8111 20.3157C18.9359 19.9982 19.0648 19.6696 18.983 19.3494ZM27.5505 28.2259C27.4769 28.1849 27.3916 28.1698 27.3084 28.1832C27.2252 28.1967 27.149 28.2377 27.0919 28.2997L25.7237 29.7889L24.1536 23.4474C24.2563 23.3295 24.3841 23.1912 24.4469 23.175C24.5344 23.1549 24.7974 23.2692 24.9544 23.3375C25.3107 23.4924 25.7141 23.668 26.0794 23.479C26.4525 23.2862 26.5429 22.8492 26.6228 22.4635C26.648 22.3251 26.6829 22.1886 26.7272 22.055L29.1056 29.0917L27.5505 28.2259ZM30.9375 21.3966C30.9375 22.1144 30.325 22.6984 29.5728 22.6984H27.7365L27.449 21.8484C27.7947 21.8072 28.1521 21.7319 28.3483 21.4285C28.5748 21.0779 28.4338 20.6564 28.3094 20.2847C28.2556 20.1242 28.1656 19.8553 28.192 19.7705C28.217 19.6937 28.4358 19.5291 28.5665 19.4307C28.8856 19.1907 29.2472 18.9187 29.2581 18.4899C29.2689 18.061 28.9216 17.7711 28.615 17.5154C28.4896 17.4109 28.2799 17.2359 28.2588 17.1582C28.2368 17.0723 28.34 16.8086 28.4021 16.651C28.5452 16.286 28.7074 15.8724 28.4988 15.5111C28.2901 15.1498 27.8496 15.0816 27.4613 15.022C27.2946 14.9964 27.0156 14.9535 26.955 14.8931C26.8966 14.8351 26.8534 14.5589 26.8276 14.3937C26.7667 14.0047 26.6977 13.5638 26.3342 13.3533C25.9783 13.147 25.5671 13.3033 25.2043 13.4414C25.0443 13.5021 24.7767 13.6039 24.6903 13.5799C24.6134 13.5558 24.4465 13.3405 24.3465 13.2118C24.1037 12.8993 23.8284 12.5444 23.404 12.5344C22.9794 12.5269 22.6877 12.8656 22.4301 13.1664C22.3238 13.2904 22.1463 13.4979 22.0684 13.5181C21.9803 13.5382 21.7178 13.4239 21.5608 13.3556C21.2046 13.2007 20.8011 13.0253 20.4358 13.2142C20.0628 13.407 19.9723 13.844 19.8924 14.2296C19.8585 14.3934 19.8018 14.6675 19.7403 14.7229C19.6764 14.7804 19.3954 14.8097 19.2274 14.8271C18.8368 14.8677 18.3939 14.9137 18.167 15.2646C17.9401 15.6155 18.0814 16.0366 18.2059 16.4084C18.2596 16.569 18.3496 16.8378 18.3232 16.9226C18.2982 16.9995 18.0794 17.1641 17.9487 17.2624C17.6296 17.5025 17.2681 17.7745 17.2571 18.2034C17.2462 18.6322 17.5937 18.9221 17.9003 19.1777C18.0253 19.2822 18.2354 19.4572 18.2565 19.535C18.2784 19.6209 18.1753 19.8845 18.1132 20.0421C17.9701 20.4071 17.8078 20.8207 18.0165 21.182C18.2253 21.5434 18.6656 21.6115 19.054 21.6712C19.1266 21.6823 19.2204 21.6967 19.3083 21.7145C19.2856 21.7474 19.2684 21.7838 19.2573 21.8222L19.0034 22.6984H2.42725C1.675 22.6984 1.0625 22.1144 1.0625 21.3966V2.75573C1.0625 2.03798 1.675 1.45398 2.42725 1.45398H29.5728C30.325 1.45398 30.9375 2.03798 30.9375 2.75573V21.3966Z" fill="#9E9797"/>
<path d="M12.2071 12.4511C12.3396 12.4509 12.4667 12.3982 12.5605 12.3045C12.6542 12.2108 12.7069 12.0837 12.7071 11.9511V4.3761C12.7069 4.24354 12.6542 4.11645 12.5605 4.02271C12.4667 3.92897 12.3396 3.87625 12.2071 3.8761H4.33789C4.20533 3.87625 4.07824 3.92897 3.9845 4.02271C3.89077 4.11645 3.83804 4.24354 3.83789 4.3761V11.9511C3.83804 12.0837 3.89077 12.2108 3.9845 12.3045C4.07824 12.3982 4.20533 12.4509 4.33789 12.4511H12.2071ZM4.58789 4.6261H11.9571V11.7011H4.58789V4.6261Z" fill="#9E9797"/>
<path d="M14.7192 6.19519H14.7222L26.7518 6.10144C26.8513 6.10106 26.9465 6.06119 27.0166 5.99059C27.0866 5.92 27.1258 5.82446 27.1254 5.725C27.125 5.62555 27.0851 5.53032 27.0145 5.46026C26.9439 5.39021 26.8484 5.35106 26.749 5.35144H26.746L14.7163 5.44519C14.6169 5.44557 14.5217 5.48545 14.4516 5.55604C14.3815 5.62664 14.3424 5.72217 14.3428 5.82163C14.3432 5.92109 14.383 6.01632 14.4536 6.08637C14.5242 6.15643 14.6198 6.19557 14.7192 6.19519Z" fill="#9E9797"/>
<path d="M26.7626 9.98084H26.7597L14.73 10.0746C14.6306 10.075 14.5353 10.1148 14.4653 10.1854C14.3952 10.256 14.3561 10.3516 14.3564 10.451C14.3568 10.5505 14.3967 10.6457 14.4673 10.7158C14.5379 10.7858 14.6334 10.825 14.7329 10.8246H14.7358L26.7655 10.7308C26.865 10.7305 26.9602 10.6906 27.0302 10.62C27.1003 10.5494 27.1394 10.4539 27.1391 10.3544C27.1387 10.2549 27.0988 10.1597 27.0282 10.0897C26.9576 10.0196 26.8621 9.98046 26.7626 9.98084Z" fill="#9E9797"/>
<path d="M4.68214 15.7691H4.68526L15.7699 15.6796C15.8192 15.6792 15.8679 15.6691 15.9132 15.6498C15.9586 15.6306 15.9997 15.6026 16.0342 15.5675C16.0687 15.5324 16.096 15.4909 16.1145 15.4452C16.1329 15.3995 16.1422 15.3507 16.1418 15.3015C16.1414 15.2522 16.1313 15.2035 16.1121 15.1582C16.0929 15.1128 16.0649 15.0717 16.0298 15.0372C15.9947 15.0027 15.9531 14.9754 15.9074 14.9569C15.8618 14.9385 15.8129 14.9292 15.7637 14.9296L4.6792 15.0191C4.57974 15.0195 4.48451 15.0594 4.41446 15.13C4.34441 15.2006 4.30528 15.2962 4.30567 15.3956C4.30606 15.4951 4.34594 15.5903 4.41654 15.6603C4.48714 15.7304 4.58268 15.7695 4.68214 15.7691Z" fill="#9E9797"/>
<path d="M15.7807 19.5586H15.7776L4.69287 19.6482C4.59341 19.6486 4.49819 19.6884 4.42814 19.759C4.35808 19.8296 4.31895 19.9252 4.31934 20.0246C4.31973 20.1241 4.35961 20.2193 4.43021 20.2894C4.50081 20.3594 4.59635 20.3986 4.69581 20.3982H4.69893L15.7837 20.3086C15.8831 20.3082 15.9784 20.2683 16.0484 20.1977C16.1185 20.1271 16.1576 20.0316 16.1572 19.9321C16.1568 19.8326 16.1169 19.7374 16.0463 19.6674C15.9757 19.5973 15.8801 19.5582 15.7807 19.5586Z" fill="#9E9797"/>
</svg>
