<svg width="32" height="32" viewBox="0 0 32 32" fill="none" xmlns="http://www.w3.org/2000/svg">
<path d="M7.79883 21.9688C7.85628 21.9688 7.91317 21.9574 7.96625 21.9354C8.01933 21.9135 8.06756 21.8812 8.10819 21.8406C8.14881 21.8 8.18104 21.7518 8.20302 21.6987C8.22501 21.6456 8.23633 21.5887 8.23633 21.5312V14.5312C8.23633 14.4152 8.19023 14.3039 8.10819 14.2219C8.02614 14.1398 7.91486 14.0938 7.79883 14.0938C7.6828 14.0938 7.57152 14.1398 7.48947 14.2219C7.40742 14.3039 7.36133 14.4152 7.36133 14.5312V21.5312C7.36133 21.6473 7.40742 21.7586 7.48947 21.8406C7.57152 21.9227 7.6828 21.9688 7.79883 21.9688Z" fill="#9E9797"/>
<path d="M31.1875 10.9787H28.75V7.97871C28.7502 7.92115 28.739 7.86413 28.7171 7.8109C28.6951 7.75768 28.6629 7.7093 28.6223 7.66854C28.5817 7.62779 28.5334 7.59545 28.4802 7.57338C28.4271 7.55132 28.3701 7.53996 28.3125 7.53996H14.2625L11.2875 3.57246C11.2467 3.51814 11.1939 3.47405 11.1331 3.44368C11.0724 3.4133 11.0054 3.39748 10.9375 3.39746H2.4375C2.32147 3.39746 2.21019 3.44355 2.12814 3.5256C2.04609 3.60765 2 3.71893 2 3.83496V25.95C2.00046 26.6529 2.27973 27.3269 2.77653 27.8242C3.27333 28.3214 3.94709 28.6013 4.65 28.6025H4.66225H28.9775C29.6797 28.6013 30.3529 28.3217 30.8492 27.8249C31.3455 27.3281 31.6245 26.6547 31.625 25.9525V11.4162C31.625 11.3002 31.5789 11.1889 31.4969 11.1069C31.4148 11.0248 31.3035 10.9787 31.1875 10.9787ZM6.425 11.4162V25.9512C6.42447 26.4218 6.23729 26.873 5.90453 27.2057C5.57177 27.5385 5.1206 27.7257 4.65 27.7262C4.64725 27.7262 4.64475 27.7262 4.642 27.7262C4.17264 27.7234 3.72344 27.535 3.39241 27.2023C3.06138 26.8695 2.87539 26.4193 2.875 25.95V4.27246H10.7188L13.6938 8.23996C13.7345 8.29428 13.7874 8.33837 13.8481 8.36875C13.9089 8.39912 13.9758 8.41494 14.0437 8.41496H27.8762V10.9787H6.8625C6.74647 10.9787 6.63519 11.0248 6.55314 11.1069C6.47109 11.1889 6.425 11.3002 6.425 11.4162ZM30.75 25.9512C30.75 26.4215 30.5633 26.8726 30.231 27.2054C29.8987 27.5382 29.4478 27.7256 28.9775 27.7262H6.616C7.05669 27.2401 7.30054 26.6073 7.3 25.9512V11.8537H30.75V25.9512Z" fill="#9E9797"/>
<path d="M14.8047 24.6183H21.0337C21.1497 24.6183 21.261 24.5722 21.3431 24.4901C21.4251 24.4081 21.4712 24.2968 21.4712 24.1808C21.4712 24.0648 21.4251 23.9535 21.3431 23.8714C21.261 23.7894 21.1497 23.7433 21.0337 23.7433H14.8047C14.6887 23.7433 14.5774 23.7894 14.4953 23.8714C14.4133 23.9535 14.3672 24.0648 14.3672 24.1808C14.3672 24.2968 14.4133 24.4081 14.4953 24.4901C14.5774 24.5722 14.6887 24.6183 14.8047 24.6183Z" fill="#9E9797"/>
<path d="M17.609 22.125C17.6293 22.1455 17.6515 22.1638 17.6755 22.1798C17.6805 22.1833 17.6863 22.1853 17.6915 22.1885C17.7104 22.2004 17.7301 22.211 17.7505 22.22C17.7593 22.2235 17.7685 22.2253 17.7775 22.2283C17.7954 22.2351 17.8136 22.2407 17.8323 22.245C17.8893 22.2567 17.9482 22.2567 18.0053 22.245C18.0239 22.2407 18.0422 22.2351 18.06 22.2283C18.0688 22.2253 18.0783 22.2235 18.087 22.22C18.1074 22.211 18.1271 22.2004 18.146 22.1885C18.151 22.1853 18.1568 22.1833 18.1618 22.1798C18.1858 22.1638 18.2082 22.1455 18.2285 22.125L20.32 20.0335C20.3606 19.9929 20.3929 19.9447 20.4149 19.8916C20.4368 19.8385 20.4482 19.7816 20.4482 19.7241C20.4482 19.6667 20.4368 19.6098 20.4149 19.5567C20.3929 19.5036 20.3606 19.4554 20.32 19.4148C20.2794 19.3741 20.2311 19.3419 20.1781 19.3199C20.125 19.2979 20.0681 19.2866 20.0106 19.2866C19.9532 19.2866 19.8963 19.2979 19.8432 19.3199C19.7901 19.3419 19.7419 19.3741 19.7013 19.4148L18.3563 20.76V15.4C18.3563 15.284 18.3102 15.1727 18.2281 15.0907C18.1461 15.0086 18.0348 14.9625 17.9188 14.9625C17.8027 14.9625 17.6915 15.0086 17.6094 15.0907C17.5274 15.1727 17.4813 15.284 17.4813 15.4V20.76L16.1375 19.4148C16.0555 19.3327 15.9442 19.2866 15.8281 19.2866C15.7121 19.2866 15.6008 19.3327 15.5188 19.4148C15.4367 19.4968 15.3906 19.6081 15.3906 19.7241C15.3906 19.8402 15.4367 19.9515 15.5188 20.0335L17.609 22.125Z" fill="#9E9797"/>
</svg>
