<svg width="16" height="16" viewBox="0 0 16 16" fill="#fff" xmlns="http://www.w3.org/2000/svg">
<path d="M14.21 11.3392L14.1409 11.1231C13.9787 10.6261 13.4441 10.1076 12.9516 9.96864L11.1331 9.45777C10.6406 9.32043 9.9378 9.50563 9.57596 9.87757L8.91821 10.5536C6.52758 9.88838 4.65202 7.96073 4.00628 5.50368L4.66403 4.82766C5.02443 4.45726 5.20463 3.73496 5.07099 3.2272L4.57537 1.35817C4.44174 0.851946 3.93416 0.302506 3.45065 0.135822L3.24339 0.0648023C2.75835 -0.101882 2.06609 0.0663331 1.7057 0.438322L0.720611 1.45077C0.544929 1.6298 0.432293 2.14373 0.432293 2.14531C0.399232 5.35863 1.62463 8.45308 3.83507 10.7264C6.0395 12.9921 9.03984 14.25 12.1557 14.2222C12.1723 14.2222 12.6873 14.1095 12.863 13.9289L13.8481 12.9165C14.2085 12.5476 14.3706 11.8361 14.21 11.3392Z"/>
</svg>
