<svg width="24" height="24" viewBox="0 0 24 24" fill="none" xmlns="http://www.w3.org/2000/svg">
<g clip-path="url(#clip0)">
<path d="M23.896 19.1328L23.7795 18.7682C23.5058 17.9297 22.6038 17.0547 21.7727 16.8203L18.7043 15.9583C17.8733 15.7266 16.6875 16.0391 16.0769 16.6666L14.9671 17.8073C10.9333 16.6849 7.76862 13.4323 6.67905 9.28648L7.78888 8.14581C8.39699 7.52081 8.70105 6.30206 8.47556 5.44531L7.63929 2.29165C7.4138 1.43748 6.55734 0.510398 5.74151 0.229148L5.3918 0.109314C4.57337 -0.171936 3.40532 0.111897 2.79721 0.739564L1.13505 2.4479C0.838615 2.74998 0.648561 3.61715 0.648561 3.61981C0.592777 9.04173 2.66043 14.2631 6.39016 18.099C10.1097 21.9219 15.1723 24.0444 20.4298 23.9974C20.4577 23.9974 21.3268 23.8073 21.6233 23.5026L23.2854 21.7942C23.8935 21.1718 24.1671 19.9713 23.896 19.1328Z" fill="#2B2129"/>
</g>
<defs>
<clipPath id="clip0">
<rect width="24.0006" height="24" fill="white"/>
</clipPath>
</defs>
</svg>
