<svg width="32" height="32" viewBox="0 0 32 32" fill="none" xmlns="http://www.w3.org/2000/svg">
<path d="M3.625 28.5592H6.27312V29.4375C6.2736 29.8683 6.44496 30.2814 6.74961 30.586C7.05425 30.8907 7.4673 31.062 7.89812 31.0625H21.5177C21.5273 31.0625 21.5365 31.0617 21.546 31.0612C21.5549 31.0618 21.5637 31.0625 21.5728 31.0625H21.5754C21.6273 31.0621 21.6786 31.0509 21.7259 31.0296C21.7733 31.0083 21.8157 30.9773 21.8504 30.9387C21.8578 30.9324 21.8654 30.9262 21.8724 30.9195L25.0924 27.8161C25.0994 27.8093 25.1058 27.8019 25.1124 27.7948C25.1573 27.7582 25.1931 27.7117 25.217 27.659C25.2409 27.6062 25.2522 27.5487 25.25 27.4908C25.25 27.4861 25.2491 27.4816 25.2488 27.4769C25.2493 27.4672 25.2502 27.4574 25.2502 27.4476V5.80719C25.2498 5.37636 25.0784 4.96333 24.7738 4.65869C24.4691 4.35405 24.0561 4.18268 23.6252 4.18219H20.9769V2.5625C20.9764 2.13168 20.805 1.71864 20.5004 1.414C20.1957 1.10936 19.7827 0.937996 19.3519 0.9375H3.625C3.19418 0.937996 2.78114 1.10936 2.4765 1.414C2.17186 1.71864 2.0005 2.13168 2 2.5625V26.9342C2.0005 27.365 2.17186 27.778 2.4765 28.0827C2.78114 28.3873 3.19418 28.5587 3.625 28.5592ZM21.9296 27.9945L23.9061 27.9181L21.9419 29.8112L21.9296 27.9945ZM24.5 5.80719V27.1447L21.6987 27.2531C21.6275 27.2516 21.5567 27.265 21.4909 27.2924C21.4252 27.3199 21.3659 27.3608 21.3169 27.4126C21.2679 27.4643 21.2302 27.5257 21.2063 27.5929C21.1825 27.66 21.1729 27.7314 21.1782 27.8025L21.1952 30.3125H7.89812C7.66614 30.3122 7.44374 30.22 7.2797 30.0559C7.11566 29.8919 7.02339 29.6695 7.02312 29.4375V5.80719C7.02341 5.57521 7.11568 5.35281 7.27972 5.18878C7.44375 5.02475 7.66615 4.93247 7.89812 4.93219H23.625C23.857 4.93245 24.0794 5.02472 24.2434 5.18876C24.4075 5.3528 24.4997 5.5752 24.5 5.80719ZM2.75 2.5625C2.75025 2.33051 2.84251 2.1081 3.00656 1.94406C3.1706 1.78002 3.39301 1.68775 3.625 1.6875H19.3519C19.5839 1.68776 19.8063 1.78004 19.9703 1.94407C20.1343 2.10811 20.2266 2.33052 20.2269 2.5625V4.18219H7.89812C7.4673 4.18268 7.05426 4.35405 6.74962 4.65869C6.44499 4.96333 6.27362 5.37636 6.27312 5.80719V27.8092H3.625C3.39301 27.8089 3.1706 27.7167 3.00656 27.5526C2.84251 27.3886 2.75025 27.1662 2.75 26.9342V2.5625Z" fill="#9E9797"/>
<path d="M9.19531 17.6512H22.7593C22.8588 17.6512 22.9542 17.6117 23.0245 17.5414C23.0948 17.4711 23.1343 17.3757 23.1343 17.2762C23.1343 17.1768 23.0948 17.0814 23.0245 17.0111C22.9542 16.9408 22.8588 16.9012 22.7593 16.9012H9.19531C9.09586 16.9012 9.00047 16.9408 8.93015 17.0111C8.85982 17.0814 8.82031 17.1768 8.82031 17.2762C8.82031 17.3757 8.85982 17.4711 8.93015 17.5414C9.00047 17.6117 9.09586 17.6512 9.19531 17.6512Z" fill="#9E9797"/>
<path d="M9.19531 21.8641H22.7593C22.8588 21.8641 22.9542 21.8246 23.0245 21.7543C23.0948 21.684 23.1343 21.5886 23.1343 21.4891C23.1343 21.3897 23.0948 21.2943 23.0245 21.224C22.9542 21.1536 22.8588 21.1141 22.7593 21.1141H9.19531C9.09586 21.1141 9.00047 21.1536 8.93015 21.224C8.85982 21.2943 8.82031 21.3897 8.82031 21.4891C8.82031 21.5886 8.85982 21.684 8.93015 21.7543C9.00047 21.8246 9.09586 21.8641 9.19531 21.8641Z" fill="#9E9797"/>
<path d="M9.19531 26.0771H22.7593C22.8588 26.0771 22.9542 26.0376 23.0245 25.9673C23.0948 25.897 23.1343 25.8016 23.1343 25.7021C23.1343 25.6027 23.0948 25.5073 23.0245 25.437C22.9542 25.3667 22.8588 25.3271 22.7593 25.3271H9.19531C9.09586 25.3271 9.00047 25.3667 8.93015 25.437C8.85982 25.5073 8.82031 25.6027 8.82031 25.7021C8.82031 25.8016 8.85982 25.897 8.93015 25.9673C9.00047 26.0376 9.09586 26.0771 9.19531 26.0771Z" fill="#9E9797"/>
<path d="M9.32031 13.8984H14.3328C14.4654 13.8982 14.5925 13.8455 14.6862 13.7518C14.7799 13.658 14.8327 13.5309 14.8328 13.3984V8.38586C14.8327 8.2533 14.7799 8.12621 14.6862 8.03248C14.5925 7.93874 14.4654 7.88601 14.3328 7.88586H9.32031C9.18775 7.88601 9.06066 7.93874 8.96692 8.03248C8.87319 8.12621 8.82046 8.2533 8.82031 8.38586V13.3984C8.82046 13.5309 8.87319 13.658 8.96692 13.7518C9.06066 13.8455 9.18775 13.8982 9.32031 13.8984ZM9.57031 8.63586H14.0828V13.1484H9.57031V8.63586Z" fill="#9E9797"/>
<path d="M16.6172 9.22498H22.7579C22.8574 9.22498 22.9528 9.18547 23.0231 9.11514C23.0934 9.04481 23.1329 8.94943 23.1329 8.84998C23.1329 8.75052 23.0934 8.65514 23.0231 8.58481C22.9528 8.51448 22.8574 8.47498 22.7579 8.47498H16.6172C16.5177 8.47498 16.4223 8.51448 16.352 8.58481C16.2817 8.65514 16.2422 8.75052 16.2422 8.84998C16.2422 8.94943 16.2817 9.04481 16.352 9.11514C16.4223 9.18547 16.5177 9.22498 16.6172 9.22498Z" fill="#9E9797"/>
<path d="M16.6172 13.4382H22.7579C22.8574 13.4382 22.9528 13.3987 23.0231 13.3284C23.0934 13.2581 23.1329 13.1627 23.1329 13.0632C23.1329 12.9638 23.0934 12.8684 23.0231 12.7981C22.9528 12.7277 22.8574 12.6882 22.7579 12.6882H16.6172C16.5177 12.6882 16.4223 12.7277 16.352 12.7981C16.2817 12.8684 16.2422 12.9638 16.2422 13.0632C16.2422 13.1627 16.2817 13.2581 16.352 13.3284C16.4223 13.3987 16.5177 13.4382 16.6172 13.4382Z" fill="#9E9797"/>
</svg>
