<svg width="22" height="22" viewBox="0 0 22 22" fill="none" xmlns="http://www.w3.org/2000/svg">
<path d="M4.99863 7.31912H0.272095V21.513H4.99863V7.31912Z" fill="#D2CCCC"/>
<path d="M20.5104 8.61565C19.5176 7.53184 18.2044 6.98984 16.5717 6.98984C15.9702 6.98984 15.4234 7.06383 14.9315 7.21193C14.4398 7.35992 14.0245 7.56756 13.6855 7.83495C13.3466 8.10234 13.0767 8.35057 12.8763 8.57963C12.6858 8.79721 12.4995 9.05065 12.3177 9.33735V7.31903H7.60522L7.61967 8.00662C7.62935 8.4651 7.63412 9.8782 7.63412 12.2461C7.63412 14.6143 7.62459 17.7032 7.60543 21.5131H12.3177V13.5924C12.3177 13.1055 12.3699 12.7189 12.4751 12.4322C12.6758 11.9449 12.9787 11.537 13.3847 11.2077C13.7907 10.878 14.2942 10.7133 14.896 10.7133C15.7169 10.7133 16.3211 10.9974 16.7079 11.5655C17.0945 12.1336 17.2879 12.919 17.2879 13.9217V21.5126H22.0001V13.3778C21.9998 11.2864 21.5036 9.69911 20.5104 8.61565Z" fill="#D2CCCC"/>
<path d="M2.66402 0.48703C1.87158 0.48703 1.22949 0.718752 0.737606 1.18174C0.245768 1.64483 0 2.22948 0 2.93623C0 3.63311 0.238695 4.21575 0.716134 4.6835C1.19342 5.15131 1.82372 5.38534 2.60668 5.38534H2.63532C3.43749 5.38534 4.0845 5.15151 4.57619 4.6835C5.06787 4.21575 5.30893 3.63331 5.29944 2.93623C5.28991 2.22953 5.04625 1.64483 4.56896 1.18174C4.09172 0.718551 3.45651 0.48703 2.66402 0.48703Z" fill="#D2CCCC"/>
</svg>
