<svg width="22" height="22" viewBox="0 0 22 22" fill="#312E2E" xmlns="http://www.w3.org/2000/svg">
<path d="M11 0C6.02452 0 1.97656 4.04796 1.97656 9.02344C1.97656 13.035 4.61998 16.552 8.44084 17.6785L10.4234 21.6437C10.5327 21.862 10.7558 22 11 22C11.244 22 11.4673 21.862 11.5764 21.6437L13.559 17.6786C17.38 16.5522 20.0234 13.0351 20.0234 9.02344C20.0234 4.04796 15.9755 0 11 0V0ZM12.9489 16.5102C12.7686 16.5569 12.6175 16.6793 12.5343 16.8458L11 19.9143L9.46571 16.8458C9.38246 16.6793 9.2314 16.5569 9.05113 16.5101C5.64468 15.6262 3.26562 12.5475 3.26562 9.02344C3.26562 4.75862 6.73518 1.28906 11 1.28906C15.2648 1.28906 18.7344 4.75862 18.7344 9.02344C18.7344 12.5475 16.3553 15.6262 12.9489 16.5102Z"/>
<path d="M11 6.44531C9.57834 6.44531 8.42188 7.60178 8.42188 9.02344C8.42188 10.4451 9.57834 11.6016 11 11.6016C12.4217 11.6016 13.5781 10.4451 13.5781 9.02344C13.5781 7.60178 12.4217 6.44531 11 6.44531ZM11 10.3125C10.2892 10.3125 9.71094 9.73427 9.71094 9.02344C9.71094 8.31261 10.2892 7.73438 11 7.73438C11.7108 7.73438 12.2891 8.31261 12.2891 9.02344C12.2891 9.73427 11.7108 10.3125 11 10.3125Z"/>
</svg>