<svg width="22" height="22" viewBox="0 0 22 22" fill="none" xmlns="http://www.w3.org/2000/svg">
<path d="M11.299 0C5.26939 0 2.06274 3.86392 2.06274 8.07711C2.06274 10.0311 3.15454 12.4677 4.90225 13.2405C5.16763 13.3601 5.31202 13.3092 5.37114 13.0631C5.42339 12.8761 5.65303 11.9754 5.76441 11.5505C5.79879 11.4144 5.78091 11.2961 5.67091 11.1683C5.09063 10.4972 4.62998 9.27479 4.62998 8.12799C4.62998 5.18948 6.96621 2.33623 10.9415 2.33623C14.3792 2.33623 16.7842 4.56933 16.7842 7.7636C16.7842 11.3731 14.8742 13.8702 12.3922 13.8702C11.0185 13.8702 9.99547 12.7922 10.32 11.4584C10.7119 9.8702 11.4805 8.16237 11.4805 7.01694C11.4805 5.98977 10.9003 5.13998 9.71496 5.13998C8.31652 5.13998 7.1821 6.52467 7.1821 8.38375C7.1821 9.56493 7.60012 10.3625 7.60012 10.3625C7.60012 10.3625 6.21681 15.9507 5.95967 16.9944C5.52515 18.7613 6.0188 21.6229 6.06142 21.869C6.08755 22.0051 6.24018 22.0477 6.32544 21.9364C6.46157 21.7576 8.13364 19.3719 8.60254 17.6475C8.77305 17.0191 9.47295 14.4712 9.47295 14.4712C9.9336 15.3031 11.2633 16.0002 12.6796 16.0002C16.8928 16.0002 19.9372 12.2972 19.9372 7.70172C19.922 3.29602 16.1516 0 11.299 0Z" fill="#D2CCCC"/>
</svg>
