<svg width="99" height="99" viewBox="0 0 99 99" fill="none" xmlns="http://www.w3.org/2000/svg">
<g filter="url(#filter0_d)">
<path fill-rule="evenodd" clip-rule="evenodd" d="M85 47.5C85 68.2107 68.2107 85 47.5 85C26.7893 85 10 68.2107 10 47.5C10 26.7893 26.7893 10 47.5 10C68.2107 10 85 26.7893 85 47.5ZM87 47.5C87 69.3152 69.3152 87 47.5 87C25.6848 87 8 69.3152 8 47.5C8 25.6848 25.6848 8 47.5 8C69.3152 8 87 25.6848 87 47.5ZM39 62.5885L66 47L39 31.4115L39 62.5885Z" fill="white"/>
</g>
<defs>
<filter id="filter0_d" x="0" y="0" width="99" height="99" filterUnits="userSpaceOnUse" color-interpolation-filters="sRGB">
<feFlood flood-opacity="0" result="BackgroundImageFix"/>
<feColorMatrix in="SourceAlpha" type="matrix" values="0 0 0 0 0 0 0 0 0 0 0 0 0 0 0 0 0 0 127 0"/>
<feOffset dx="2" dy="2"/>
<feGaussianBlur stdDeviation="5"/>
<feColorMatrix type="matrix" values="0 0 0 0 0 0 0 0 0 0 0 0 0 0 0 0 0 0 0.15 0"/>
<feBlend mode="normal" in2="BackgroundImageFix" result="effect1_dropShadow"/>
<feBlend mode="normal" in="SourceGraphic" in2="effect1_dropShadow" result="shape"/>
</filter>
</defs>
</svg>
