<svg width="22" height="22" viewBox="0 0 22 22" fill="none" xmlns="http://www.w3.org/2000/svg">
<path d="M17.6247 20.2876V1.70787C17.6247 0.768539 16.8606 0 15.9168 0H6.08311C5.14378 0 4.37524 0.764045 4.37524 1.70787V20.2921C4.37524 21.2315 5.13929 22 6.08311 22H15.9168C16.8561 21.9955 17.6247 21.2315 17.6247 20.2876ZM5.47637 3.95955H16.5191V16.4629H5.47637V3.95955ZM6.08311 1.10112H15.9168C16.2494 1.10112 16.5236 1.37079 16.5236 1.70787V2.85843H5.47637V1.70787C5.47637 1.37079 5.75053 1.10112 6.08311 1.10112ZM5.47637 20.2876V17.5596H16.5191V20.2876C16.5191 20.6202 16.2494 20.8944 15.9123 20.8944H6.08311C5.75053 20.8944 5.47637 20.6247 5.47637 20.2876Z" fill="white"/>
<path d="M12.1145 18.7236H9.88081C9.5752 18.7236 9.328 18.9708 9.328 19.2764C9.328 19.5821 9.5752 19.8293 9.88081 19.8293H12.1145C12.4202 19.8293 12.6673 19.5821 12.6673 19.2764C12.6673 18.9708 12.4202 18.7236 12.1145 18.7236Z" fill="white"/>
</svg>
