<svg width="1920" height="560" viewBox="0 0 1920 560" fill="none" xmlns="http://www.w3.org/2000/svg">
<rect width="1920" height="560" fill="#F5F5F5"/>
<path d="M1031.06 122.059C1037.55 113.306 1045.28 110.673 1053.38 112.451C1053.38 112.451 1030.24 93.2021 1017.7 110.707C1008.74 123.084 1023.51 132.213 1031.06 122.059Z" fill="#F0F0F0"/>
<path d="M1496.94 435.035C1490.65 443.959 1483 446.796 1474.9 445.292C1474.9 445.292 1498.52 463.926 1510.58 446.113C1519.19 433.291 1504.19 424.675 1496.94 435.035Z" fill="#F0F0F0"/>
<path d="M1101.4 506.697C1092.41 500.44 1089.64 492.85 1091.15 484.679C1091.15 484.679 1072.62 508.407 1090.46 520.407C1103.21 528.955 1111.76 513.911 1101.4 506.697Z" fill="#F0F0F0"/>
<path d="M1475.62 183.976C1478.49 234.407 1525.82 235.261 1525.82 235.261C1522.47 193.857 1481.84 192.626 1481.84 192.626C1479.02 189.047 1477.17 184.812 1476.44 180.318C1478.55 182.515 1480.84 184.539 1483.27 186.369C1510.14 205.619 1555.05 166.197 1529.21 136.349C1503.37 106.501 1486.14 132.691 1483.1 141.957C1480.06 151.222 1497.18 160.419 1500.46 147.94C1503.74 135.46 1513.45 130.058 1524.22 145.615C1534.98 161.171 1514.27 197.755 1481.9 176.728C1454.9 159.052 1461.33 120.28 1430.02 82.0554C1433.71 82.7734 1440.28 85.4744 1448.51 94.8425C1462.18 110.262 1478.11 109.134 1494.65 86.7053C1493.07 88.0086 1491.23 88.9698 1489.26 89.5286C1487.29 90.0874 1485.22 90.2317 1483.19 89.9523C1481.15 89.6729 1479.2 88.976 1477.45 87.9052C1475.7 86.8345 1474.19 85.4132 1473.02 83.7308C1463.14 71.5249 1454.15 60.2763 1428.59 80.3117C1422.21 72.7275 1415.04 65.8501 1407.19 59.7977C1349.53 15.3505 1291.33 37.3006 1291.33 37.3006L1289.76 37.7792L1262.41 10.4271L1205.47 67.7982C1194.9 62.9398 1183.28 60.7896 1171.67 61.5414C1222.08 58.7378 1222.94 11.4187 1222.94 11.4187C1181.68 14.8377 1180.39 55.3871 1180.39 55.3871C1176.78 58.2042 1172.53 60.0627 1168.01 60.7892C1170.22 58.6772 1172.26 56.3905 1174.1 53.9512C1193.41 27.0777 1154.03 -17.8481 1124.16 7.86289C1094.29 33.5739 1120.4 50.7373 1129.8 53.7802C1139.2 56.8231 1148.29 39.7281 1135.82 36.4116C1123.34 33.0952 1117.84 23.3852 1133.22 12.6837C1148.6 1.98219 1185.48 22.7014 1164.39 55.0452C1146.72 82.0554 1107.96 75.7986 1069.58 106.912C1070.3 103.219 1073 96.6546 1082.4 88.449C1097.81 74.9439 1096.72 58.8745 1074.3 42.2923C1075.59 43.8813 1076.55 45.7208 1077.1 47.6956C1077.65 49.6705 1077.79 51.7383 1077.51 53.7696C1077.23 55.801 1076.53 57.7523 1075.46 59.5013C1074.39 61.2504 1072.97 62.7596 1071.29 63.9347C1059.09 73.7814 1047.81 82.7392 1067.87 108.382C1060.29 114.75 1053.42 121.914 1047.36 129.751C1002.86 187.258 1024.84 245.518 1024.84 245.518C1025.08 246.441 1025.32 247.16 1025.56 247.775L995.242 278.067L1045.14 327.985C1034.34 344.533 1036.29 365.594 1036.53 367.919C1032.22 317.625 984.955 318.275 984.955 318.275C989.432 359.303 1030.1 359.303 1030.1 359.303C1032.74 361.491 1034.72 367.133 1035.88 371.543C1033.65 369.39 1031.25 367.423 1028.7 365.662C1001.36 347.166 957.715 387.886 984.271 416.948C1010.83 446.009 1027.44 419.375 1030.21 410.11C1032.97 400.844 1015.61 392.023 1012.67 404.639C1009.73 417.255 1000.16 422.862 989.022 407.682C977.88 392.502 997.43 355.303 1030.34 375.372C1057.99 392.228 1052.83 431.137 1085.03 468.575C1081.34 467.993 1074.77 465.532 1066.16 456.3C1052.22 441.291 1036.19 442.898 1020.26 465.805C1021.81 464.455 1023.62 463.44 1025.58 462.823C1027.54 462.205 1029.61 461.999 1031.65 462.217C1033.7 462.436 1035.67 463.073 1037.46 464.091C1039.25 465.108 1040.8 466.483 1042.03 468.13C1052.29 480.063 1061.55 491.072 1086.46 470.182C1093.07 477.537 1100.45 484.162 1108.47 489.944C1167.4 532.886 1224.89 509.09 1224.89 509.09L1225.88 508.748L1262.55 545.434L1317.78 490.32C1334.32 501.431 1355.72 499.551 1358.01 499.312C1307.7 503.449 1308.11 550.597 1308.11 550.597C1349.12 546.255 1349.5 505.568 1349.5 505.568C1353.01 502.665 1357.19 500.7 1361.67 499.859C1359.52 502.066 1357.55 504.444 1355.79 506.97C1337.19 534.322 1377.73 578.086 1407.05 551.725C1436.38 525.364 1409.62 508.543 1400.22 505.739C1390.82 502.936 1382.1 520.27 1394.68 523.245C1407.26 526.219 1412.83 535.792 1397.62 546.904C1382.41 558.016 1345.26 538.254 1365.49 505.363C1382.58 477.806 1421.34 483.14 1458.87 451.069C1458.22 454.762 1455.72 461.326 1446.56 469.806C1431.49 483.721 1432.89 499.756 1455.86 515.757C1454.52 514.206 1453.51 512.393 1452.9 510.434C1452.3 508.474 1452.1 506.41 1452.33 504.371C1452.55 502.332 1453.2 500.362 1454.23 498.585C1455.25 496.808 1456.64 495.263 1458.29 494.046C1470.25 483.789 1481.29 474.592 1460.54 449.599C1467.91 443.035 1474.56 435.699 1480.37 427.717C1523.5 368.945 1499.98 311.471 1499.98 311.471C1499.68 310.445 1499.37 309.659 1499.1 308.975L1529.86 278.204L1469.43 217.585C1474.22 207.062 1476.35 195.518 1475.62 183.976ZM1450.22 198.302C1460.68 196.9 1468.92 186.062 1468.92 186.062C1469.64 191.187 1469.15 196.41 1467.48 201.311C1463.98 202.374 1460.55 203.676 1457.23 205.208L1450.22 198.302ZM1439.11 108.348C1448.99 128.657 1456.78 158.675 1473.87 177.719C1472.96 179.109 1471.75 180.274 1470.32 181.126C1468.89 181.979 1467.29 182.497 1465.64 182.643C1450.05 173.446 1438.29 174.608 1430.4 178.506L1407.67 155.769C1417.68 149.923 1429.1 137.136 1437.95 114.365C1438.6 112.419 1438.99 110.396 1439.11 108.348ZM1434.84 100.416C1435.7 101.783 1436.52 103.219 1437.3 104.723C1434.88 112.724 1427.9 130.913 1413.04 135.495C1404.35 138.196 1397.35 139.085 1392.53 140.555L1372.71 120.724C1375.51 117.511 1373.42 111.459 1368.6 107.63C1361.32 101.817 1364.57 84.5171 1364.57 84.5171C1369.01 103.561 1390.2 108.86 1403.53 105.407C1416.86 101.954 1420.86 84.6881 1413.38 82.876C1405.89 81.0639 1406.34 91.6287 1406.03 95.1844C1405.72 98.7402 1396.97 104.929 1382.99 99.595C1369.01 94.2613 1367.17 85.9189 1365.9 63.4218C1365.73 59.1545 1364.56 54.9867 1362.49 51.2523C1360.42 47.5178 1357.5 44.3204 1353.98 41.9162C1370.66 45.831 1386.4 53.0211 1400.28 63.0692C1414.16 73.1172 1425.91 85.8232 1434.84 100.45V100.416ZM1356.23 104.347L1346.9 95.0135C1352.24 93.6039 1357.09 90.7534 1360.91 86.7737C1358.58 92.406 1357.03 98.3298 1356.3 104.382L1356.23 104.347ZM1347.79 40.6854C1357.15 47.2841 1367.72 61.1995 1362.08 76.3799C1357.6 88.4832 1348.78 90.8423 1341.16 89.2696L1325.92 74.0208C1324.75 68.2768 1324.04 62.909 1315.08 62.4303H1314.36L1293.04 41.0273C1311.13 37.7551 1329.66 37.6394 1347.79 40.6854ZM1262.58 28.9582L1307.22 73.6105C1309.17 79.1151 1314.77 85.748 1324.65 91.4235L1325.37 91.7654L1384.74 151.154C1384.74 151.598 1384.74 151.974 1384.74 152.453C1385.08 154.441 1386.1 156.249 1387.63 157.565C1389.16 158.881 1391.09 159.625 1393.11 159.667L1419.97 186.54C1418.69 187.952 1417.54 189.486 1416.56 191.122C1419.08 190.544 1421.69 190.474 1424.25 190.917L1445.54 212.217C1441.56 215.341 1438.27 219.252 1435.87 223.705L1262.58 50.1219L1224.99 87.731C1222.89 83.0516 1219.93 78.8071 1216.27 75.2174L1262.58 28.9582ZM1432.79 242.099C1437.61 241.595 1442.33 240.445 1446.84 238.68L1486.21 278.067L1306.71 457.668C1304.08 457.345 1301.41 457.437 1298.81 457.942C1299.12 460.094 1299.54 462.229 1300.08 464.335L1262.48 501.944L1077.92 317.318C1078.31 314.509 1078.22 311.655 1077.68 308.873C1075.38 309.205 1073.09 309.673 1070.84 310.274L1038.96 278.375L1214.46 102.57C1219.28 104.573 1224.55 105.223 1229.7 104.45C1229.17 99.7618 1228.02 95.1642 1226.29 90.7739L1262.58 54.3614L1434.74 226.577C1432.68 231.474 1432.01 236.848 1432.82 242.099H1432.79ZM1189.07 69.6102C1190.15 73.2336 1191.48 76.7756 1193.07 80.2092L1186.02 87.2523C1184.86 76.6192 1173.79 68.2084 1173.79 68.2084C1178.92 67.4782 1184.15 67.9582 1189.07 69.6102ZM1165.45 63.1825C1166.84 64.0895 1168.01 65.3035 1168.86 66.7317C1169.72 68.1599 1170.23 69.7643 1170.37 71.4223C1161.01 87.2181 1162.3 98.9795 1166.3 107.014L1143.47 129.716C1137.73 119.459 1124.95 108.006 1101.91 98.9454C1099.97 98.282 1097.95 97.8796 1095.9 97.7487C1116.3 87.9703 1146.34 80.2092 1165.42 63.1825H1165.45ZM1088.07 102.125C1089.44 101.27 1090.87 100.45 1092.38 99.6633C1100.37 102.091 1118.52 109.134 1123.14 123.973C1125.87 132.93 1126.76 140.11 1128.26 144.999L1108.61 164.659C1105.47 161.24 1099.14 163.462 1095.14 168.454C1089.33 175.736 1072.04 172.454 1072.04 172.454C1091.11 168.078 1096.44 147.017 1092.99 133.341C1089.54 119.665 1072.31 116.246 1070.47 123.665C1068.62 131.084 1079.22 130.708 1082.74 131.016C1086.26 131.323 1092.55 140.179 1087.18 154.06C1081.82 167.941 1073.51 169.89 1050.99 171.155C1046.72 171.327 1042.56 172.488 1038.82 174.547C1035.09 176.607 1031.88 179.507 1029.45 183.019C1033.38 166.323 1040.58 150.574 1050.65 136.687C1060.71 122.8 1073.43 111.052 1088.07 102.125ZM1082.74 190.575C1081.38 185.018 1078.46 179.964 1074.33 176.01C1080.15 178.444 1086.28 180.044 1092.55 180.762L1082.74 190.575ZM1028.22 189.071C1034.82 179.737 1048.73 169.206 1063.91 174.847C1076.52 179.531 1078.57 188.934 1076.55 196.729L1062.47 210.815C1056.39 212.115 1050.41 212.354 1049.93 221.825C1049.9 222.326 1049.9 222.828 1049.93 223.329L1028.63 244.629C1025.25 226.276 1025.12 207.472 1028.22 189.071ZM1062.4 229.073C1069.16 225.47 1074.69 219.935 1078.3 213.175L1139.34 152.248H1139.99C1141.87 151.94 1143.6 151.008 1144.9 149.601C1146.19 148.194 1146.98 146.393 1147.13 144.487L1174.47 117.134C1175.82 118.316 1177.27 119.369 1178.81 120.28C1178.28 117.912 1178.2 115.464 1178.57 113.066L1200.11 91.5261C1203.25 95.5062 1207.18 98.7895 1211.66 101.168L1034.72 278.067L1067.6 311.129C1062.64 312.755 1058.01 315.256 1053.93 318.514L1013.6 278.067L1062.4 229.073ZM1044.36 350.345C1049.93 348.529 1055.25 346.037 1060.21 342.926L1071.66 354.38C1056.69 346.824 1043.36 365.594 1043.36 365.594C1042.48 360.504 1042.82 355.277 1044.36 350.345ZM1075.12 442.453C1064.62 422.452 1055.98 392.673 1038.34 374.073C1039.21 372.653 1040.39 371.449 1041.79 370.555C1043.2 369.66 1044.79 369.098 1046.44 368.911C1065.58 379.475 1078.57 375.065 1086.26 369.184L1109.29 392.057C1098.6 396.946 1085.61 410.281 1076.31 436.504C1075.66 438.427 1075.25 440.427 1075.12 442.453ZM1079.63 450.249C1078.74 448.915 1077.88 447.514 1077.03 446.009C1079.22 437.906 1085.68 419.546 1100.37 414.554C1111.41 410.793 1119.79 410.007 1124.3 407.374L1143.44 426.521C1137.59 428.948 1139.64 436.778 1145.63 441.188C1153.04 446.796 1150.34 464.164 1150.34 464.164C1145.39 445.257 1124.03 440.573 1110.8 444.471C1097.57 448.368 1094.09 465.634 1101.6 467.241C1109.12 468.848 1108.44 458.283 1108.44 454.728C1108.44 451.172 1117.26 444.71 1131.34 449.633C1145.42 454.557 1147.57 462.865 1149.59 485.294C1149.88 489.562 1151.16 493.704 1153.34 497.385C1155.52 501.067 1158.53 504.186 1162.13 506.492C1145.36 503.048 1129.43 496.303 1115.29 486.647C1101.14 476.992 1089.05 464.619 1079.73 450.249H1079.63ZM1158.24 441.154L1169.69 452.608C1163.6 453.951 1158.09 457.167 1153.93 461.805C1156.5 455.17 1157.96 448.16 1158.27 441.052L1158.24 441.154ZM1168.49 507.483C1158.96 501.158 1147.98 487.55 1153.18 472.233C1157.86 458.557 1168.39 456.813 1176.59 459.412L1188.9 471.823C1190.57 478.114 1190.6 484.576 1200.52 484.815C1200.99 484.815 1201.37 484.815 1201.81 484.815L1222.66 505.671C1204.82 509.379 1186.47 509.992 1168.42 507.483H1168.49ZM1207.56 472.096C1204.24 466.225 1199.35 461.395 1193.44 458.147L1094.94 359.508L1095.14 359.098H1094.67L1069.96 334.379C1073.46 330.403 1075.96 325.642 1077.24 320.497L1262.58 506.013L1301 467.583C1302.55 472.627 1304.99 477.352 1308.21 481.533L1262.58 527.211L1207.56 472.096ZM1340.41 491.619C1338.58 485.884 1336.03 480.404 1332.82 475.31L1345.36 462.762L1344.65 464.233C1336.92 479.174 1355.72 492.645 1355.72 492.645C1350.59 493.516 1345.34 493.164 1340.37 491.619H1340.41ZM1364.33 497.431C1362.92 496.557 1361.73 495.373 1360.84 493.969C1359.95 492.566 1359.39 490.979 1359.21 489.328C1370.11 469.771 1365.32 456.642 1359.21 448.984L1382.17 426.008C1386.72 436.846 1400.05 450.283 1426.6 459.89C1428.57 460.496 1430.6 460.841 1432.65 460.916C1412.59 471.344 1382.72 479.857 1364.13 497.431H1364.33ZM1440.62 456.403C1439.28 457.292 1437.85 458.147 1436.38 459.001C1428.31 456.779 1409.99 450.215 1405.04 435.479C1401.07 423.786 1400.49 414.965 1397.52 410.691L1416.86 391.339C1418.74 398.451 1427.12 396.536 1431.83 390.279C1437.4 382.928 1454.49 385.732 1454.49 385.732C1435.56 390.621 1430.77 411.922 1434.57 425.187C1438.36 438.453 1455.69 442.009 1457.33 434.453C1458.97 426.897 1448.38 427.615 1444.86 427.41C1441.34 427.205 1434.91 418.589 1439.87 404.502C1444.82 390.416 1453.16 388.33 1475.62 386.416C1479.88 386.144 1484.02 384.877 1487.71 382.716C1491.39 380.555 1494.52 377.56 1496.84 373.971C1493.37 390.777 1486.59 406.725 1476.91 420.888C1467.22 435.051 1454.81 447.147 1440.41 456.471L1440.62 456.403ZM1443.11 365.047C1444.22 371.63 1447.51 377.649 1452.44 382.142C1445.42 379.352 1437.95 377.846 1430.4 377.697L1443.11 365.047ZM1498.21 367.885C1491.85 377.39 1478.18 388.399 1462.9 383.065C1447.62 377.732 1447.38 365.355 1451.25 356.944L1460.17 348.02C1467 345.456 1475.41 346.892 1475.68 335.712C1475.7 334.723 1475.6 333.736 1475.38 332.772L1496.23 311.916C1500.11 330.344 1500.71 349.315 1498 367.953L1498.21 367.885ZM1511.88 277.999L1457.19 332.498C1455.81 333.69 1454.52 334.982 1453.33 336.362L1324.31 465.429C1320.3 461.939 1315.5 459.475 1310.33 458.249L1490.45 278.067L1449.78 237.381C1454.36 235.178 1458.5 232.141 1461.98 228.423L1511.88 277.999Z" fill="#F0F0F0"/>
<path d="M1414.81 43.4213C1423.6 49.8832 1426.19 57.6444 1424.45 65.7132C1424.45 65.7132 1443.66 42.5323 1426.16 30.0529C1413.48 21.0951 1404.63 35.8653 1414.81 43.4213Z" fill="#F0F0F0"/>
</svg>
